<svg width="113" height="42" viewBox="0 0 113 42" fill="none" xmlns="http://www.w3.org/2000/svg">
<path d="M11.7131 30.0129L7.76939 26.0691C4.97991 23.2797 0.266663 25.2515 0.266663 29.1953V34.3414H23.1596V18.5664L11.7131 30.0129Z" fill="#201B21"/>
<path d="M11.7132 12.6527L15.6569 16.5965C18.4464 19.3859 23.1596 17.4141 23.1596 13.4703V8.32422H0.266693V24.0992L11.7132 12.6527Z" fill="#201B21"/>
<path d="M33.7942 31.4688V11.3594H43.2161C47.0411 11.3594 48.9536 12.9203 48.9536 16.0422C48.9536 18.3297 47.7067 19.9656 45.213 20.95C47.8755 21.4469 49.2067 22.9703 49.2067 25.5203C49.2067 29.4859 47.1114 31.4688 42.9208 31.4688H33.7942ZM42.7661 28.2344C44.4161 28.2344 45.2411 27.3906 45.2411 25.7031C45.2411 23.6125 44.0083 22.5672 41.5427 22.5672H40.4177V20.1625C43.5114 19.6469 45.0583 18.3531 45.0583 16.2813C45.0583 15.1563 44.3645 14.5938 42.977 14.5938H37.5208V28.2344H42.7661ZM50.627 11.3594H54.6348L60.288 21.0484L65.6036 11.3594H69.4708L62.0739 24.4375V31.4688H58.3473V24.4375L50.627 11.3594ZM70.6661 31.4688V11.3594H74.3927L85.0098 26.0125V11.3594H88.5958V31.4688H84.8692L74.252 16.5063V31.4688H70.6661ZM100.704 28.2344C104.875 28.2344 106.961 25.7781 106.961 20.8656C106.961 16.6844 104.875 14.5938 100.704 14.5938H96.5552V28.2344H100.704ZM92.8286 31.4688V11.3594H100.704C107.36 11.3594 110.688 14.5281 110.688 20.8656C110.688 27.9344 107.36 31.4688 100.704 31.4688H92.8286Z" fill="#201B21"/>
</svg>
