<svg width="28" height="19" viewBox="0 0 28 19" fill="none" xmlns="http://www.w3.org/2000/svg">
<path d="M23.9857 4.30398C22.7256 3.041 21.2279 2.03997 19.5791 1.3586C17.9302 0.67724 16.1627 0.329025 14.3786 0.334038H14.33C6.85313 0.359556 0.768799 6.53138 0.768799 14.0812V16.8603C0.768799 17.3759 0.97364 17.8705 1.33826 18.2351C1.70288 18.5997 2.19741 18.8045 2.71306 18.8045H26.0442C26.5599 18.8045 27.0544 18.5997 27.419 18.2351C27.7837 17.8705 27.9885 17.3759 27.9885 16.8603V13.9439C27.9935 12.152 27.6422 10.377 26.955 8.72204C26.2678 7.06712 25.2585 5.56532 23.9857 4.30398ZM26.0442 16.8603H13.3713L20.0255 7.71009C20.1773 7.50157 20.2401 7.2413 20.2 6.98652C20.1598 6.73174 20.0202 6.50333 19.8117 6.35153C19.6031 6.19974 19.3429 6.137 19.0881 6.1771C18.8333 6.21721 18.6049 6.35689 18.4531 6.5654L10.9665 16.8603H2.71306V14.0812C2.71306 13.7069 2.73129 13.3375 2.76532 12.9718H5.62946C5.88728 12.9718 6.13455 12.8693 6.31686 12.687C6.49917 12.5047 6.60159 12.2574 6.60159 11.9996C6.60159 11.7418 6.49917 11.4945 6.31686 11.3122C6.13455 11.1299 5.88728 11.0275 5.62946 11.0275H3.11042C4.36447 6.30536 8.45715 2.7352 13.4065 2.31962V5.1947C13.4065 5.45252 13.5089 5.69979 13.6912 5.8821C13.8736 6.06441 14.1208 6.16683 14.3786 6.16683C14.6365 6.16683 14.8837 6.06441 15.066 5.8821C15.2484 5.69979 15.3508 5.45252 15.3508 5.1947V2.3184C17.7625 2.52136 20.0516 3.46831 21.9019 5.02841C23.7521 6.58852 25.0722 8.68476 25.6797 11.0275H23.1278C22.87 11.0275 22.6227 11.1299 22.4404 11.3122C22.2581 11.4945 22.1557 11.7418 22.1557 11.9996C22.1557 12.2574 22.2581 12.5047 22.4404 12.687C22.6227 12.8693 22.87 12.9718 23.1278 12.9718H26.0041C26.0296 13.2938 26.0442 13.617 26.0442 13.9439V16.8603Z" fill="#1DBC79"/>
</svg>
