<svg width="266" height="187" viewBox="0 0 266 187" fill="none" xmlns="http://www.w3.org/2000/svg">
<g clip-path="url(#clip0_201_2078)">
<path d="M163.418 173.175C170.927 170.47 174.821 162.19 172.115 154.681C169.41 147.173 161.13 143.279 153.622 145.984C146.113 148.69 142.219 156.97 144.925 164.478C147.63 171.987 155.91 175.88 163.418 173.175Z" fill="#1DBC79"/>
<path d="M221.851 185.794C229.935 183.366 238.53 180.834 244.942 175.062C250.671 169.905 254.539 162.029 252.165 154.294C249.797 146.574 242.702 141.427 235.377 138.867C231.222 137.415 226.876 136.61 222.531 135.977C217.808 135.289 213.064 134.725 208.322 134.183C189.122 131.987 169.85 130.646 150.505 130.159C140.96 129.918 131.416 129.924 121.87 130.063C113.344 130.186 104.365 130.183 96.4555 126.56C90.305 123.742 84.7227 118.615 83.0089 111.878C81.0307 104.102 84.6796 96.1824 89.9139 90.5503C92.6729 87.5816 95.8975 85.0829 99.224 82.7854C102.833 80.2929 106.567 77.9769 110.383 75.815C117.898 71.5592 125.754 67.9373 133.871 64.9869C137.875 63.5309 141.938 62.2749 146.037 61.1161C149.498 60.1376 152.969 59.1578 156.314 57.8246C162.781 55.2474 168.931 50.882 170.575 43.7252C172.133 36.9423 169.506 29.579 164.9 24.5401C159.571 18.7104 151.536 16.1549 143.833 15.7414C135.185 15.2772 126.736 17.4416 118.608 20.1884C109.939 23.1182 101.456 26.4869 92.6035 28.8599C83.8249 31.2108 74.8765 32.8742 65.8395 33.8349C61.4156 34.306 56.8579 34.8379 52.4077 34.4773C48.678 34.175 44.9673 33.0782 42.2186 30.4312C39.8617 28.1615 38.4577 25.0423 38.9404 21.7505C39.0281 21.1527 39.9363 21.4068 39.8492 22.0011C39.2616 26.0081 41.9853 29.7004 45.3418 31.5918C49.2209 33.7777 53.9413 33.7807 58.2601 33.5307C67.6245 32.9651 76.9255 31.6206 86.0667 29.511C95.049 27.4594 103.71 24.5266 112.362 21.3937C120.579 18.4182 128.979 15.5142 137.758 14.8697C145.375 14.3105 153.387 15.4202 160.023 19.4007C165.855 22.8991 170.143 28.7332 171.509 35.4279C172.845 41.9699 170.995 48.5546 166.043 53.1198C160.916 57.8466 153.886 59.8674 147.334 61.7286C139.024 64.0893 130.892 66.8486 123.021 70.4315C115.043 74.0529 107.391 78.3546 100.151 83.2889C93.1625 88.0647 86.2655 94.0738 84.0552 102.594C83.0257 106.562 83.2158 110.772 84.9385 114.52C86.4703 117.853 88.9931 120.657 91.932 122.82C98.944 127.979 107.782 129.039 116.251 129.144C125.764 129.262 135.277 128.941 144.793 129.097C164.186 129.416 183.54 130.596 202.854 132.639C207.693 133.151 212.527 133.717 217.354 134.337C221.696 134.895 226.053 135.45 230.322 136.44C237.912 138.202 245.298 141.59 250.016 148.026C252.11 150.815 253.407 154.121 253.769 157.59C254.099 161.21 253.213 164.837 251.576 168.058C247.954 175.186 241.167 179.72 233.961 182.699C230.101 184.294 226.097 185.503 222.101 186.703C221.519 186.878 221.271 185.968 221.851 185.794Z" fill="#F2F2F2"/>
<path d="M39.5488 29.376C43.7128 29.376 47.0884 26.0004 47.0884 21.8364C47.0884 17.6724 43.7128 14.2969 39.5488 14.2969C35.3848 14.2969 32.0093 17.6724 32.0093 21.8364C32.0093 26.0004 35.3848 29.376 39.5488 29.376Z" fill="#F2F2F2"/>
<path d="M91.8545 43.665C96.0185 43.665 99.394 40.2895 99.394 36.1255C99.394 31.9615 96.0185 28.5859 91.8545 28.5859C87.6905 28.5859 84.3149 31.9615 84.3149 36.1255C84.3149 40.2895 87.6905 43.665 91.8545 43.665Z" fill="#F2F2F2"/>
<path d="M136.149 15.0791C140.313 15.0791 143.689 11.7035 143.689 7.53954C143.689 3.37557 140.313 0 136.149 0C131.985 0 128.61 3.37557 128.61 7.53954C128.61 11.7035 131.985 15.0791 136.149 15.0791Z" fill="#F2F2F2"/>
<path d="M163.794 47.1221C167.958 47.1221 171.334 43.7465 171.334 39.5825C171.334 35.4185 167.958 32.043 163.794 32.043C159.63 32.043 156.255 35.4185 156.255 39.5825C156.255 43.7465 159.63 47.1221 163.794 47.1221Z" fill="#F2F2F2"/>
<path d="M126.411 84.1885C130.575 84.1885 133.95 80.8129 133.95 76.6489C133.95 72.4849 130.575 69.1094 126.411 69.1094C122.247 69.1094 118.871 72.4849 118.871 76.6489C118.871 80.8129 122.247 84.1885 126.411 84.1885Z" fill="#F2F2F2"/>
<path d="M78.9744 102.099C83.1383 102.099 86.5139 98.723 86.5139 94.5591C86.5139 90.3951 83.1383 87.0195 78.9744 87.0195C74.8104 87.0195 71.4348 90.3951 71.4348 94.5591C71.4348 98.723 74.8104 102.099 78.9744 102.099Z" fill="#F2F2F2"/>
<path d="M129.238 130.056C133.402 130.056 136.778 126.68 136.778 122.516C136.778 118.352 133.402 114.977 129.238 114.977C125.074 114.977 121.698 118.352 121.698 122.516C121.698 126.68 125.074 130.056 129.238 130.056Z" fill="#F2F2F2"/>
<path d="M183.271 145.767C187.435 145.767 190.811 142.391 190.811 138.227C190.811 134.063 187.435 130.688 183.271 130.688C179.108 130.688 175.732 134.063 175.732 138.227C175.732 142.391 179.108 145.767 183.271 145.767Z" fill="#F2F2F2"/>
<path d="M246.415 142.31C250.579 142.31 253.955 138.934 253.955 134.77C253.955 130.606 250.579 127.23 246.415 127.23C242.251 127.23 238.875 130.606 238.875 134.77C238.875 138.934 242.251 142.31 246.415 142.31Z" fill="#F2F2F2"/>
<path d="M105.951 18.2406C84.7575 26.0461 73.5814 49.581 80.9344 70.9357C81.0023 71.1329 81.498 72.5126 82.1481 74.3165C83.1013 76.9615 85.066 79.1195 87.6101 80.3161C90.1542 81.5126 93.0695 81.6496 95.7146 80.6969C97.0257 80.2242 98.2308 79.4978 99.261 78.5591C100.291 77.6205 101.126 76.4881 101.719 75.2266C102.311 73.9651 102.649 72.5992 102.714 71.207C102.778 69.8148 102.567 68.4236 102.094 67.1129C101.651 65.8861 101.344 65.037 101.325 64.9848C100.141 61.7015 99.8327 58.1666 100.429 54.7279C101.026 51.2891 102.508 48.0649 104.729 45.3725C106.95 42.68 109.833 40.6121 113.095 39.372C116.358 38.1319 119.887 37.7625 123.335 38.3C126.784 38.8376 130.033 40.2636 132.763 42.4377C135.494 44.6119 137.611 47.4593 138.907 50.6999C140.203 53.9406 140.633 57.4627 140.155 60.92C139.677 64.3773 138.307 67.6505 136.18 70.4178L136.185 70.4207C136.185 70.4207 125.283 84.6734 125.472 98.7686L125.476 98.7681C125.64 101.61 126.215 104.414 127.182 107.092C127.578 108.193 131.114 117.803 134.056 125.577C135.072 128.259 137.102 130.435 139.707 131.634C142.313 132.833 145.285 132.96 147.983 131.987C149.339 131.499 150.584 130.747 151.649 129.775C152.713 128.803 153.574 127.63 154.183 126.324C154.793 125.018 155.138 123.605 155.198 122.165C155.259 120.725 155.035 119.287 154.538 117.935C151.915 110.789 148.887 102.46 148.669 101.854C145.895 94.1569 150.558 83.8119 154.855 76.6127C159.804 68.3226 162.031 58.6529 160.871 49.0679C160.664 47.0833 160.239 45.1274 159.604 43.2355C157.739 38.0594 154.869 33.3034 151.157 29.2417C147.446 25.1799 142.968 21.8927 137.981 19.5693C132.993 17.2459 127.596 15.9324 122.099 15.7043C116.601 15.4763 111.114 16.3383 105.951 18.2406Z" fill="#1DBC79"/>
<path d="M264.979 186.998H0.374067C0.275051 186.998 0.18019 186.958 0.110276 186.888C0.0403616 186.818 0.00109863 186.723 0.00109863 186.624C0.00109863 186.525 0.0403616 186.43 0.110276 186.36C0.18019 186.29 0.275051 186.25 0.374067 186.25H264.979C265.078 186.25 265.173 186.289 265.243 186.36C265.313 186.43 265.353 186.525 265.353 186.624C265.353 186.723 265.313 186.818 265.243 186.889C265.173 186.959 265.078 186.998 264.979 186.998Z" fill="#3F3D56"/>
<path d="M96.8303 74.9633C94.1851 75.916 91.2699 75.779 88.7258 74.5825C86.1816 73.386 84.2169 71.228 83.2637 68.583C82.6136 66.7791 82.118 65.3994 82.05 65.2022C79.9078 58.993 79.277 52.3625 80.2099 45.8607C77.7961 54.0976 78.0017 62.881 80.7983 70.9959C80.8663 71.193 81.3619 72.5727 82.012 74.3767C82.9652 77.0216 84.9299 79.1797 87.4741 80.3762C90.0182 81.5727 92.9334 81.7097 95.5786 80.757C97.7517 79.973 99.6097 78.5012 100.87 76.565C102.13 74.6289 102.724 72.3343 102.562 70.0297C101.326 72.3253 99.2842 74.0825 96.8303 74.9633Z" fill="#3F3D56"/>
<path d="M114.199 39.0115C117.309 38.0559 120.605 37.8693 123.804 38.468C127.002 39.0667 130.007 40.4327 132.562 42.4487C135.116 44.4647 137.142 47.0705 138.468 50.0423C139.793 53.0141 140.377 56.2632 140.17 59.5106C141.187 56.8049 141.609 53.9119 141.406 51.0285C141.204 48.1452 140.382 45.3395 138.997 42.8026C137.612 40.2657 135.696 38.0573 133.38 36.3279C131.064 34.5986 128.402 33.389 125.576 32.7815C122.75 32.1741 119.827 32.1831 117.005 32.808C114.183 33.4329 111.528 34.6589 109.223 36.4025C106.918 38.1462 105.016 40.3664 103.646 42.9118C102.277 45.4572 101.472 48.268 101.288 51.1525C102.366 48.2752 104.092 45.6842 106.33 43.5792C108.569 41.4742 111.261 39.9115 114.199 39.0115Z" fill="#3F3D56"/>
<path d="M149.099 126.254C146.401 127.227 143.429 127.1 140.823 125.901C138.218 124.702 136.189 122.526 135.173 119.844C132.23 112.07 128.695 102.46 128.298 101.359C127.331 98.681 126.757 95.8774 126.592 93.0351L126.588 93.0355C126.573 91.5846 126.664 90.1345 126.86 88.6967C125.852 91.9798 125.338 95.3948 125.337 98.8292L125.341 98.8287C125.505 101.671 126.079 104.475 127.046 107.152C127.443 108.253 130.979 117.864 133.921 125.638C134.937 128.32 136.966 130.495 139.572 131.694C142.177 132.894 145.149 133.02 147.847 132.048C150.072 131.246 151.977 129.744 153.276 127.768C154.575 125.792 155.198 123.448 155.052 121.088C153.782 123.493 151.659 125.336 149.099 126.254Z" fill="#3F3D56"/>
<path d="M39.7527 183.02L43.6038 183.019L45.4362 168.164L39.7517 168.164L39.7527 183.02Z" fill="#FFB8B8"/>
<path d="M51.0316 186.594L38.9273 186.594L38.9271 181.918L46.3547 181.917C47.5951 181.917 48.7846 182.41 49.6617 183.287C50.5388 184.164 51.0316 185.353 51.0316 186.594Z" fill="#2F2E41"/>
<path d="M25.9299 183.02L29.781 183.019L31.6135 168.164L25.929 168.164L25.9299 183.02Z" fill="#FFB8B8"/>
<path d="M37.2092 186.594L25.1049 186.594L25.1047 181.918L32.5323 181.917C33.7727 181.917 34.9622 182.41 35.8393 183.287C36.7164 184.164 37.2092 185.353 37.2092 186.594Z" fill="#2F2E41"/>
<path d="M29.2956 178.446L25.5337 178.248C25.3397 178.238 25.1497 178.19 24.9746 178.105C24.7995 178.021 24.6429 177.903 24.5138 177.758C24.3847 177.613 24.2857 177.444 24.2225 177.26C24.1593 177.076 24.1331 176.882 24.1456 176.688L28.6419 126.906L49.3477 132.494L51.3426 131.949L45.1041 176.019C45.051 176.351 44.8864 176.654 44.6375 176.88C44.3885 177.105 44.0702 177.239 43.735 177.259L39.6797 177.448C39.477 177.459 39.2741 177.428 39.0839 177.357C38.8936 177.286 38.7203 177.176 38.5747 177.034C38.4291 176.893 38.3144 176.722 38.238 176.534C38.1615 176.346 38.1249 176.144 38.1305 175.941L38.8653 149.491C38.8688 149.369 38.8263 149.25 38.7462 149.157C38.6662 149.064 38.5543 149.005 38.4328 148.991C38.3113 148.977 38.1888 149.009 38.0896 149.08C37.9904 149.152 37.9216 149.258 37.8967 149.378L30.8105 177.278C30.7436 177.609 30.564 177.907 30.3023 178.12C30.0405 178.334 29.7129 178.45 29.3751 178.448C29.3488 178.448 29.3223 178.448 29.2956 178.446Z" fill="#2F2E41"/>
<path d="M40.4441 86.1738C44.7054 86.1738 48.1599 82.7193 48.1599 78.458C48.1599 74.1967 44.7054 70.7422 40.4441 70.7422C36.1827 70.7422 32.7283 74.1967 32.7283 78.458C32.7283 82.7193 36.1827 86.1738 40.4441 86.1738Z" fill="#FFB8B8"/>
<path d="M27.5978 101.131L28.4461 119.435L28.7528 126.095C28.765 126.385 28.8635 126.664 29.0355 126.898C29.2076 127.132 29.4454 127.309 29.7186 127.407L49.6155 134.614C49.7762 134.674 49.9465 134.704 50.118 134.702C50.3139 134.703 50.5081 134.665 50.6888 134.589C50.8696 134.513 51.0332 134.402 51.17 134.261C51.3067 134.121 51.4138 133.954 51.4847 133.772C51.5557 133.589 51.5891 133.394 51.583 133.198L50.7673 100.286C50.7137 97.5854 49.7198 94.9885 47.9567 92.9425C46.1936 90.8965 43.772 89.5297 41.1093 89.0778C40.9168 89.0485 40.721 89.0191 40.5252 88.993C38.8741 88.788 37.1981 88.9474 35.6152 89.4598C34.0323 89.9722 32.5809 90.8253 31.3631 91.9589C30.1021 93.1187 29.1113 94.5413 28.4606 96.1262C27.81 97.7111 27.5154 99.4195 27.5978 101.131Z" fill="#CCCCCC"/>
<path d="M59.1201 130.96C58.6495 130.814 58.2196 130.56 57.8646 130.218C57.5096 129.876 57.2394 129.456 57.0756 128.991C56.9117 128.527 56.8587 128.03 56.9209 127.541C56.9831 127.053 57.1586 126.585 57.4335 126.176L50.6863 117.204L56.5088 116.844L62.0234 125.419C62.6138 125.875 63.0246 126.525 63.1838 127.254C63.343 127.983 63.2404 128.745 62.8941 129.406C62.5477 130.067 61.9797 130.585 61.2896 130.869C60.5995 131.153 59.8314 131.185 59.1201 130.96Z" fill="#FFB8B8"/>
<path d="M54.376 124.553C54.1973 124.48 54.0347 124.373 53.8976 124.237C53.7606 124.102 53.6519 123.94 53.5778 123.762L43.4125 99.5428C43.213 99.0686 43.109 98.5598 43.1063 98.0454C43.1035 97.5309 43.2022 97.021 43.3967 96.5448C43.5911 96.0685 43.8775 95.6352 44.2395 95.2697C44.6015 94.9042 45.0319 94.6136 45.5063 94.4145C45.9806 94.2154 46.4895 94.1117 47.004 94.1094C47.5184 94.1071 48.0282 94.2062 48.5043 94.401C48.9804 94.5958 49.4135 94.8826 49.7787 95.2448C50.144 95.6071 50.4343 96.0378 50.633 96.5123L60.7982 120.732C60.9485 121.091 60.9501 121.495 60.8029 121.855C60.6556 122.215 60.3714 122.503 60.0127 122.654L55.4998 124.548C55.3222 124.623 55.1314 124.662 54.9385 124.663C54.7456 124.664 54.5544 124.626 54.376 124.553Z" fill="#CCCCCC"/>
<path d="M37.9633 123.7L47.7268 105.005C47.9151 104.646 48.2383 104.375 48.6255 104.254C49.0127 104.132 49.4324 104.169 49.7923 104.357L63.964 111.758C64.3235 111.947 64.5937 112.27 64.7152 112.657C64.8367 113.044 64.7997 113.464 64.6122 113.824L54.8487 132.518C54.6605 132.878 54.3372 133.148 53.95 133.27C53.5628 133.391 53.1432 133.354 52.7832 133.167L38.6116 125.765C38.252 125.577 37.9819 125.254 37.8604 124.866C37.7388 124.479 37.7759 124.06 37.9633 123.7Z" fill="#3F3D56"/>
<path d="M44.511 115.158C44.3374 114.697 44.0585 114.282 43.6964 113.948C43.3343 113.614 42.8991 113.369 42.4255 113.233C41.952 113.097 41.4532 113.073 40.9689 113.164C40.4846 113.255 40.0283 113.458 39.6364 113.756L30.2815 107.551L30.2656 113.384L39.1516 118.383C39.6421 118.945 40.3149 119.317 41.0521 119.433C41.7893 119.549 42.5438 119.402 43.1832 119.017C43.8226 118.632 44.3061 118.034 44.5489 117.329C44.7917 116.623 44.7783 115.854 44.511 115.158Z" fill="#FFB8B8"/>
<path d="M32.6834 116.47L25.0381 110.414C24.211 110.136 23.4637 109.662 22.8602 109.032C22.2568 108.402 21.8153 107.635 21.5736 106.796C21.3319 105.958 21.2972 105.074 21.4726 104.219C21.6479 103.364 22.0281 102.565 22.5804 101.889L29.5221 92.7919C30.0045 92.2024 30.6829 91.8063 31.4334 91.6758C32.1838 91.5453 32.9562 91.6893 33.6092 92.0814C34.2623 92.4734 34.7524 93.0874 34.99 93.8111C35.2276 94.5348 35.1969 95.3199 34.9033 96.0227L29.4108 105.007L37.4825 108.836C37.6702 108.925 37.8369 109.053 37.9715 109.211C38.1062 109.369 38.2057 109.554 38.2635 109.754C38.3214 109.953 38.3362 110.163 38.3071 110.368C38.278 110.574 38.2055 110.771 38.0946 110.947L34.8363 116.103C34.7262 116.277 34.5807 116.426 34.4093 116.54C34.2379 116.655 34.0445 116.732 33.8415 116.766C33.8334 116.768 33.8253 116.769 33.8172 116.77C33.6177 116.8 33.4142 116.789 33.2192 116.738C33.0242 116.686 32.8418 116.595 32.6834 116.47Z" fill="#CCCCCC"/>
<path d="M34.6137 83.6286C34.5806 83.5317 34.5701 83.4286 34.583 83.3271C34.5959 83.2255 34.6319 83.1283 34.6882 83.0428C34.7445 82.9573 34.8196 82.8859 34.9078 82.8339C34.9959 82.7819 35.0948 82.7508 35.1969 82.743C35.4059 82.7543 35.6104 82.8079 35.798 82.9005C35.9857 82.9931 36.1527 83.1228 36.2889 83.2817C36.5681 83.6037 36.8932 83.8828 37.2537 84.1102C37.6269 84.2983 38.1331 84.2715 38.3459 83.9128C38.5457 83.576 38.4088 83.1249 38.2879 82.7337C37.9801 81.7382 37.8078 80.7059 37.7758 79.6644C37.741 78.502 37.905 77.2889 38.5485 76.3822C39.3791 75.2121 40.8643 74.7679 42.2698 74.8001C43.6753 74.8323 45.058 75.2661 46.4502 75.5404C46.9308 75.6351 47.4957 75.6835 47.8172 75.311C48.159 74.9149 48.0335 74.2739 47.8881 73.7391C47.5108 72.3514 47.1106 70.9166 46.234 69.7958C45.2862 68.6312 43.9324 67.869 42.4451 67.6627C41.0173 67.4858 39.5678 67.6504 38.216 68.1428C36.0134 68.8371 34.0754 70.1872 32.6609 72.0127C31.2029 73.9541 30.5728 76.3938 30.9086 78.7984C31.2366 80.8927 32.3464 82.7847 34.0142 84.0932L34.6137 83.6286Z" fill="#2F2E41"/>
<path d="M159.229 170.934C156.994 170.788 154.824 170.126 152.89 168.998C150.955 167.871 149.31 166.309 148.082 164.436C146.855 162.564 146.079 160.431 145.817 158.208C145.555 155.984 145.813 153.73 146.571 151.623C145.424 153.321 144.65 155.243 144.303 157.263C143.955 159.282 144.041 161.352 144.555 163.336C145.068 165.32 145.998 167.172 147.282 168.769C148.566 170.366 150.175 171.671 152.002 172.599C153.829 173.526 155.833 174.055 157.88 174.149C159.927 174.243 161.971 173.9 163.875 173.144C165.78 172.388 167.502 171.236 168.927 169.763C170.352 168.291 171.447 166.532 172.141 164.604C170.729 166.695 168.794 168.38 166.529 169.49C164.263 170.601 161.746 171.099 159.229 170.934Z" fill="#3F3D56"/>
</g>
<defs>
<clipPath id="clip0_201_2078">
<rect width="265.353" height="187" fill="white"/>
</clipPath>
</defs>
</svg>
