<svg width="27" height="23" viewBox="0 0 27 23" fill="none" xmlns="http://www.w3.org/2000/svg">
<path d="M24.5455 4.09092H13.7186L10.2273 0.599584C10.038 0.408819 9.81274 0.257576 9.56452 0.154646C9.3163 0.0517153 9.0501 -0.000848146 8.78139 1.03487e-05H2.04545C1.50297 1.03487e-05 0.982697 0.215513 0.5991 0.59911C0.215503 0.982707 0 1.50298 0 2.04546V20.5338C0.000676521 21.0551 0.208046 21.5548 0.576632 21.9234C0.945218 22.292 1.44493 22.4993 1.96619 22.5H24.6592C25.1713 22.4993 25.6623 22.2956 26.0244 21.9335C26.3865 21.5714 26.5902 21.0804 26.5909 20.5683V6.13637C26.5909 5.59388 26.3754 5.07362 25.9918 4.69002C25.6082 4.30642 25.0879 4.09092 24.5455 4.09092ZM2.04545 2.04546H8.78139L10.8268 4.09092H2.04545V2.04546ZM24.5455 20.4546H2.04545V6.13637H24.5455V20.4546Z" fill="#1DBC79"/>
</svg>
