<svg width="23" height="25" viewBox="0 0 23 25" fill="none" xmlns="http://www.w3.org/2000/svg">
<path d="M21.9409 17.9108C21.3217 16.8443 20.4014 13.8267 20.4014 9.88543C20.4014 7.51851 19.4611 5.24853 17.7875 3.57486C16.1138 1.90119 13.8438 0.960938 11.4769 0.960938C9.10998 0.960938 6.84 1.90119 5.16633 3.57486C3.49266 5.24853 2.55241 7.51851 2.55241 9.88543C2.55241 13.8278 1.63095 16.8443 1.01181 17.9108C0.853706 18.1819 0.769887 18.4899 0.768809 18.8038C0.767732 19.1177 0.849434 19.4263 1.00568 19.6985C1.16192 19.9707 1.38718 20.1969 1.65873 20.3542C1.93029 20.5116 2.23854 20.5946 2.55241 20.5948H7.10501C7.31092 21.6024 7.85849 22.5078 8.65513 23.1581C9.45176 23.8084 10.4486 24.1636 11.4769 24.1636C12.5053 24.1636 13.502 23.8084 14.2987 23.1581C15.0953 22.5078 15.6429 21.6024 15.8488 20.5948H20.4014C20.7152 20.5944 21.0233 20.5113 21.2947 20.3538C21.5661 20.1964 21.7912 19.9702 21.9473 19.698C22.1034 19.4258 22.185 19.1173 22.1839 18.8035C22.1828 18.4898 22.0989 18.1818 21.9409 17.9108ZM11.4769 22.3797C10.9234 22.3796 10.3835 22.2078 9.93162 21.8882C9.47973 21.5685 9.13801 21.1167 8.9535 20.5948H14.0003C13.8158 21.1167 13.4741 21.5685 13.0222 21.8882C12.5703 22.2078 12.0304 22.3796 11.4769 22.3797ZM2.55241 18.8099C3.41139 17.3329 4.33731 13.9104 4.33731 9.88543C4.33731 7.99189 5.08951 6.17591 6.42844 4.83698C7.76738 3.49804 9.58336 2.74584 11.4769 2.74584C13.3704 2.74584 15.1864 3.49804 16.5254 4.83698C17.8643 6.17591 18.6165 7.99189 18.6165 9.88543C18.6165 13.907 19.5402 17.3296 20.4014 18.8099H2.55241Z" fill="#1DBC79"/>
</svg>
