<svg width="53" height="53" viewBox="0 0 53 53" fill="none" xmlns="http://www.w3.org/2000/svg">
<path d="M37.1 21.1996C37.1 24.0109 35.9832 26.7071 33.9954 28.6949C32.0075 30.6828 29.3113 31.7996 26.5 31.7996C23.6887 31.7996 20.9926 30.6828 19.0047 28.6949C17.0168 26.7071 15.9 24.0109 15.9 21.1996C15.9 18.3883 17.0168 15.6922 19.0047 13.7043C20.9926 11.7164 23.6887 10.5996 26.5 10.5996C29.3113 10.5996 32.0075 11.7164 33.9954 13.7043C35.9832 15.6922 37.1 18.3883 37.1 21.1996Z" fill="#C7C7C7"/>
<path fill-rule="evenodd" clip-rule="evenodd" d="M25.4188 52.9788C11.285 52.4117 0 40.7729 0 26.5C0 11.864 11.864 0 26.5 0C41.1359 0 53 11.864 53 26.5C53 41.1359 41.1359 53 26.5 53H26.137C25.8967 53 25.6573 52.9929 25.4188 52.9788ZM9.49495 43.2215C9.29682 42.6525 9.22937 42.0462 9.29763 41.4476C9.36589 40.8489 9.5681 40.2734 9.88924 39.7636C10.2104 39.2538 10.6422 38.8229 11.1527 38.5029C11.6632 38.1828 12.2392 37.9819 12.8379 37.9149C23.1676 36.7714 29.896 36.8747 40.1753 37.9387C40.7749 38.0012 41.3523 38.1996 41.8636 38.5189C42.3749 38.8382 42.8066 39.27 43.1258 39.7814C43.445 40.2928 43.6432 40.8703 43.7055 41.4698C43.7678 42.0694 43.6924 42.6753 43.4852 43.2414C47.891 38.7841 50.3582 32.7672 50.35 26.5C50.35 13.3282 39.6718 2.65 26.5 2.65C13.3282 2.65 2.65 13.3282 2.65 26.5C2.65 33.0137 5.26158 38.9179 9.49495 43.2215Z" fill="#C7C7C7"/>
</svg>
