<svg width="21" height="16" viewBox="0 0 21 16" fill="none" xmlns="http://www.w3.org/2000/svg">
<path d="M7.71334 0.439453L8.10909 1.44948C6.1303 2.19602 3.05218 4.34782 3.05218 6.71919C3.05218 7.81705 3.62384 7.86096 4.5033 7.86096C6.74593 7.86096 8.37293 9.09056 8.37293 11.418C8.37293 13.5698 6.7899 15.3703 4.59124 15.3703C1.46915 15.3703 0.0620117 12.7354 0.0620117 9.88102C0.0620117 5.27002 3.66781 1.97645 7.71334 0.439453ZM19.5422 0.439453L19.9379 1.44948C17.9591 2.19602 14.881 4.34782 14.881 6.71919C14.881 7.81705 15.4527 7.86096 16.3321 7.86096C18.5747 7.86096 20.2018 9.09056 20.2018 11.418C20.2018 13.5698 18.6187 15.3703 16.4201 15.3703C13.298 15.3703 11.8908 12.7354 11.8908 9.88102C11.8908 5.27002 15.4966 1.97645 19.5422 0.439453Z" fill="#1DBC79"/>
</svg>
