<svg width="231" height="164" viewBox="0 0 231 164" fill="none" xmlns="http://www.w3.org/2000/svg">
<g clip-path="url(#clip0_216_1826)">
<path d="M18.2783 22.6807C23.6057 22.6807 27.9243 18.362 27.9243 13.0347C27.9243 7.70733 23.6057 3.38867 18.2783 3.38867C12.951 3.38867 8.63232 7.70733 8.63232 13.0347C8.63232 18.362 12.951 22.6807 18.2783 22.6807Z" fill="#FF6584"/>
<path d="M77.9159 157.446C85.5891 160.624 93.736 162.51 102.026 163.026C105.909 163.267 109.866 163.279 113.73 162.766C117.116 162.317 120.555 161.394 123.377 159.398C126.197 157.368 128.183 154.381 128.963 150.995C129.826 147.426 129.463 143.686 128.23 140.248C126.958 136.689 124.947 133.44 122.329 130.714C119.982 128.312 116.695 126.127 113.18 126.538C109.801 126.933 107.344 129.665 106.444 132.825C105.365 136.614 106.606 140.622 108.289 144.032C111.145 149.818 115.727 154.675 121.155 158.128C126.614 161.623 132.891 163.634 139.365 163.964C145.852 164.256 152.829 162.751 157.941 158.56C160.633 156.372 162.555 153.382 163.427 150.024C164.334 146.481 164.097 142.739 163.312 139.197C161.606 131.507 157.103 124.897 154.495 117.537C153.848 115.741 153.35 113.895 153.006 112.017C152.921 111.536 152.187 111.74 152.272 112.22C153.621 119.791 157.889 126.311 160.69 133.362C163.242 139.785 164.761 147.671 160.981 153.942C157.58 159.584 150.826 162.333 144.528 163.035C138.369 163.722 132.064 162.618 126.418 160.095C120.736 157.556 115.643 153.6 111.948 148.574C109.94 145.842 108.21 142.748 107.323 139.461C106.415 136.096 106.628 132.285 109.03 129.567C110.09 128.33 111.566 127.523 113.18 127.299C114.856 127.09 116.535 127.559 118.009 128.342C121.172 130.024 123.526 132.946 125.343 135.969C127.219 139.091 128.542 142.63 128.673 146.299C128.795 149.71 127.9 153.208 125.849 155.969C121.616 161.67 113.659 162.362 107.129 162.405C99.1253 162.455 91.166 161.213 83.5578 158.728C81.7189 158.127 79.9058 157.455 78.1183 156.711C77.6662 156.524 77.469 157.26 77.9159 157.446Z" fill="#E6E6E6"/>
<path d="M58.12 132.741L56.075 129.602C55.8366 129.235 55.7535 128.789 55.8438 128.361C55.9342 127.933 56.1906 127.558 56.5569 127.319L69.0136 117.636C69.3804 117.398 69.8268 117.314 70.2548 117.405C70.6828 117.495 71.0576 117.752 71.2967 118.118L73.3418 121.257C73.5801 121.624 73.6632 122.07 73.5729 122.498C73.4826 122.926 73.2261 123.301 72.8599 123.54L60.4031 133.223C60.0363 133.461 59.5899 133.545 59.1619 133.454C58.7339 133.364 58.3592 133.107 58.12 132.741Z" fill="#2F2E41"/>
<path d="M56.5704 127.331L59.8558 125.531C60.2396 125.321 60.691 125.272 61.1109 125.394C61.5309 125.517 61.885 125.801 62.0957 126.184L70.819 141.902C71.0288 142.286 71.0778 142.737 70.9552 143.157C70.8327 143.577 70.5485 143.931 70.1652 144.142L66.8797 145.942C66.4959 146.152 66.0445 146.201 65.6246 146.079C65.2047 145.956 64.8505 145.672 64.6398 145.289L55.9165 129.571C55.7067 129.187 55.6577 128.736 55.7803 128.316C55.9029 127.896 56.187 127.542 56.5704 127.331Z" fill="#2F2E41"/>
<path d="M33.7341 98.408C33.3156 98.4074 32.913 98.2478 32.6078 97.9614C32.3026 97.6751 32.1175 97.2835 32.0902 96.8659L31.8453 93.1273C31.8167 92.6907 31.9628 92.2605 32.2513 91.9315C32.5398 91.6025 32.9473 91.4016 33.3839 91.373L62.6741 89.4548C63.1358 89.4246 63.599 89.4856 64.0371 89.6343C64.4752 89.7831 64.8798 90.0167 65.2276 90.3217C65.5755 90.6268 65.8598 90.9975 66.0644 91.4124C66.2691 91.8274 66.3899 92.2787 66.4202 92.7404C66.4504 93.2021 66.3894 93.6652 66.2407 94.1033C66.0919 94.5414 65.8583 94.946 65.5532 95.2938C65.2481 95.6417 64.8775 95.926 64.4625 96.1307C64.0475 96.3353 63.5963 96.4562 63.1346 96.4864L33.8445 98.4045C33.8076 98.4068 33.7708 98.408 33.7341 98.408Z" fill="#1DBC79"/>
<path d="M39.5098 98.8917C39.0832 98.8909 38.6733 98.7252 38.3661 98.4291C38.0589 98.133 37.8782 97.7295 37.8617 97.3032L37.653 91.7191C37.6449 91.5026 37.6795 91.2866 37.7549 91.0835C37.8303 90.8803 37.945 90.694 38.0924 90.5352C38.2398 90.3764 38.417 90.2481 38.614 90.1578C38.8109 90.0675 39.0237 90.0169 39.2403 90.0088L63.3264 89.1086C63.7637 89.0923 64.1896 89.2503 64.5103 89.548C64.8311 89.8456 65.0205 90.2585 65.0369 90.6958L65.2456 96.2799C65.2537 96.4964 65.219 96.7124 65.1436 96.9155C65.0683 97.1187 64.9536 97.305 64.8062 97.4638C64.6588 97.6226 64.4816 97.7508 64.2846 97.8412C64.0877 97.9315 63.8748 97.9821 63.6583 97.9902L39.5722 98.8904C39.5514 98.8913 39.5305 98.8917 39.5098 98.8917Z" fill="#CCCCCC"/>
<path d="M78.1851 157.93V145.812C78.1851 135.234 73.5699 125.089 65.335 118.449C59.1799 113.486 50.2648 109.775 37.4933 110.604L42.3586 91.1426L0.339844 119.892L41.474 148.642L37.2721 130.286C37.2721 130.286 62.9257 125.421 78.1851 157.93Z" fill="#3F3D56"/>
<path d="M48.7992 138.775L45.7689 136.572C45.4154 136.314 45.1785 135.927 45.1102 135.495C45.0419 135.062 45.1478 134.621 45.4047 134.267L63.7681 109.011C64.0257 108.657 64.4131 108.421 64.8452 108.352C65.2772 108.284 65.7188 108.39 66.0729 108.647L69.1031 110.85C69.4567 111.108 69.6935 111.495 69.7618 111.927C69.8301 112.359 69.7242 112.801 69.4673 113.155L51.104 138.411C50.8463 138.764 50.459 139.001 50.0269 139.069C49.5948 139.138 49.1533 139.032 48.7992 138.775Z" fill="#2F2E41"/>
<path d="M45.4224 134.275L47.8493 131.42C48.133 131.087 48.5373 130.881 48.9733 130.845C49.4093 130.81 49.8415 130.949 50.1751 131.232L63.931 142.804C64.2639 143.088 64.4707 143.492 64.506 143.928C64.5413 144.364 64.4021 144.796 64.1191 145.13L61.6922 147.984C61.4085 148.317 61.0042 148.524 60.5682 148.559C60.1322 148.594 59.7 148.455 59.3664 148.172L45.6106 136.6C45.2776 136.317 45.0708 135.912 45.0355 135.476C45.0003 135.04 45.1394 134.608 45.4224 134.275Z" fill="#2F2E41"/>
<path d="M62.0446 83.2513C69.1944 83.2513 74.9905 77.4552 74.9905 70.3053C74.9905 63.1555 69.1944 57.3594 62.0446 57.3594C54.8947 57.3594 49.0986 63.1555 49.0986 70.3053C49.0986 77.4552 54.8947 83.2513 62.0446 83.2513Z" fill="#1DBC79"/>
<path d="M56.3497 76.0085C55.9115 76.0177 55.4764 75.9329 55.0736 75.7599C54.8017 75.6308 54.5613 75.4439 54.3692 75.2122C54.1772 74.9805 54.0381 74.7095 53.9618 74.4184C53.9036 74.2123 53.8939 73.9956 53.9334 73.7851C53.9729 73.5746 54.0605 73.3761 54.1894 73.2051C54.5275 72.7713 55.1113 72.5649 55.7982 72.6177L54.098 67.8583L54.5761 67.6875L56.5748 73.2827L56.1242 73.1804C55.6017 73.0623 54.9241 73.0882 54.5898 73.5172C54.5089 73.6279 54.4546 73.7559 54.4311 73.891C54.4077 74.0262 54.4157 74.1649 54.4546 74.2964C54.5126 74.5129 54.6166 74.7143 54.7595 74.887C54.9023 75.0596 55.0807 75.1995 55.2825 75.2971C55.989 75.6161 56.8161 75.5026 57.7456 75.3341L57.8361 75.8336C57.3468 75.9362 56.8494 75.9947 56.3497 76.0085Z" fill="#2F2E41"/>
<path d="M51.7524 68.7914L49.0765 69.3535L49.1809 69.8503L51.8568 69.2881L51.7524 68.7914Z" fill="#2F2E41"/>
<path d="M60.1986 67.016L57.5227 67.5781L57.6271 68.0749L60.303 67.5128L60.1986 67.016Z" fill="#2F2E41"/>
<path d="M72.8545 125.867H51.0241C50.4521 125.866 49.9036 125.639 49.4991 125.234C49.0946 124.83 48.8671 124.281 48.8665 123.709L53.4367 88.6628C53.4403 88.0933 53.6692 87.5485 54.0733 87.1473C54.4774 86.7461 55.0238 86.5211 55.5933 86.5215H63.3405C66.435 86.525 69.4017 87.7558 71.5898 89.9439C73.7779 92.132 75.0087 95.0987 75.0122 98.1932V123.709C75.0116 124.281 74.784 124.83 74.3795 125.234C73.975 125.639 73.4266 125.866 72.8545 125.867Z" fill="#CCCCCC"/>
<path d="M38.7641 111.235C38.4456 111.235 38.1338 111.143 37.8662 110.97C37.5987 110.797 37.3868 110.55 37.2561 110.26L35.7227 106.841C35.634 106.644 35.5851 106.431 35.5788 106.214C35.5725 105.997 35.609 105.782 35.6861 105.579C35.7631 105.377 35.8794 105.191 36.0281 105.034C36.1768 104.876 36.3551 104.749 36.5528 104.661L63.3343 92.6465C63.7565 92.4572 64.2118 92.3528 64.6743 92.3394C65.1367 92.326 65.5973 92.4038 66.0297 92.5684C66.4621 92.733 66.8579 92.9811 67.1944 93.2986C67.5309 93.6162 67.8016 93.9969 67.9909 94.419C68.1803 94.8412 68.2847 95.2965 68.2981 95.759C68.3115 96.2214 68.2337 96.682 68.0691 97.1144C67.9045 97.5468 67.6564 97.9426 67.3388 98.2791C67.0213 98.6156 66.6406 98.8863 66.2185 99.0756L39.437 111.09C39.2254 111.185 38.9961 111.234 38.7641 111.235Z" fill="#1DBC79"/>
<path d="M46.5756 109.471C46.257 109.471 45.9452 109.379 45.6777 109.206C45.4102 109.033 45.1983 108.787 45.0676 108.496L42.4484 102.657C42.2698 102.258 42.2569 101.804 42.4125 101.395C42.5681 100.987 42.8796 100.656 43.2785 100.477L65.27 90.6114C65.4677 90.5227 65.6809 90.4738 65.8975 90.4675C66.1141 90.4612 66.3298 90.4976 66.5323 90.5747C66.7348 90.6518 66.9202 90.768 67.0777 90.9167C67.2353 91.0654 67.3621 91.2437 67.4508 91.4414L70.0701 97.2802C70.1587 97.4779 70.2076 97.6911 70.2139 97.9077C70.2202 98.1243 70.1838 98.34 70.1067 98.5425C70.0296 98.745 69.9134 98.9303 69.7646 99.0879C69.6159 99.2455 69.4376 99.3722 69.2399 99.4609L47.2484 109.326C47.0369 109.422 46.8075 109.471 46.5756 109.471Z" fill="#CCCCCC"/>
<path d="M59.172 62.189C57.0642 61.4125 55.3316 63.4582 53.4216 63.9265C51.5943 64.3745 49.6258 63.3205 48.6498 61.7841C47.5111 59.9918 47.7932 57.6648 48.829 55.8954C49.9635 53.9575 51.9838 52.7684 54.1251 52.249C56.5792 51.6537 59.1363 51.9465 61.5584 52.5511C63.8816 53.0951 66.134 53.906 68.2707 54.9678C70.2024 55.9676 72.0334 57.3353 73.1624 59.2297C74.1884 60.9513 74.6959 63.0941 74.1883 65.0666C73.9087 66.0848 73.3714 67.0138 72.6283 67.764C71.8637 68.5734 70.9876 69.2751 70.2746 70.1336C69.1965 71.4318 68.472 73.5594 69.535 75.095C69.7654 75.4311 70.075 75.7054 70.4364 75.8937C70.8705 76.1199 71.256 75.4629 70.8207 75.2362C70.0562 74.838 69.7787 74.0299 69.7992 73.206C69.8403 72.2709 70.1978 71.3775 70.8131 70.6721C71.5599 69.7747 72.4831 69.0481 73.2717 68.1902C74.0346 67.3906 74.5929 66.4186 74.8993 65.3568C75.4597 63.3031 75.0215 61.0664 74.0296 59.2161C72.9563 57.2139 71.1571 55.7021 69.1991 54.6034C67.0682 53.4076 64.7 52.6063 62.3488 51.9699C59.8258 51.287 57.1766 50.9025 54.5804 51.3751C52.3298 51.7847 50.1304 52.8712 48.715 54.7095C47.3939 56.4254 46.7628 58.7641 47.4017 60.8756C47.7049 61.8316 48.2574 62.6896 49.0024 63.3612C49.7473 64.0327 50.6577 64.4937 51.64 64.6966C52.6387 64.8802 53.6699 64.7457 54.588 64.312C55.5772 63.8687 56.4758 63.1796 57.5278 62.8849C57.9998 62.7406 58.506 62.7541 58.9696 62.9233C59.4301 63.0929 59.6288 62.3572 59.172 62.189Z" fill="#2F2E41"/>
<path d="M152.307 113.768V101.65C152.307 91.0714 156.922 80.9265 165.157 74.2866C171.312 69.3237 180.227 65.6125 192.999 66.4418L188.134 46.9805L230.152 75.7302L189.018 104.48L193.22 86.1243C193.22 86.1243 167.566 81.2589 152.307 113.768Z" fill="#3F3D56"/>
<path d="M175.147 53.1384C174.605 52.7007 174.204 52.1121 173.997 51.447C173.789 50.7818 173.783 50.07 173.98 49.4015C174.177 48.733 174.567 48.1379 175.102 47.6915C175.637 47.245 176.293 46.9672 176.986 46.8932L206.173 43.7767C206.608 43.7308 207.043 43.8593 207.383 44.134C207.724 44.4087 207.941 44.8072 207.988 45.2421L208.386 48.9676C208.409 49.1831 208.39 49.4009 208.328 49.6088C208.267 49.8167 208.166 50.0104 208.03 50.179C207.893 50.3477 207.725 50.4878 207.535 50.5915C207.345 50.6952 207.136 50.7604 206.921 50.7834L177.734 53.8999C177.607 53.9134 177.48 53.9202 177.353 53.9202C176.55 53.9207 175.771 53.6447 175.147 53.1384Z" fill="#1DBC79"/>
<path d="M183.745 78.875V75.1285C183.745 74.691 183.919 74.2716 184.229 73.9623C184.538 73.653 184.957 73.479 185.395 73.4785H216.621C217.058 73.479 217.478 73.653 217.787 73.9623C218.096 74.2716 218.27 74.691 218.271 75.1285V78.875C218.27 79.3125 218.096 79.7319 217.787 80.0412C217.478 80.3505 217.058 80.5245 216.621 80.525H185.395C184.957 80.5245 184.538 80.3505 184.229 80.0412C183.919 79.7319 183.745 79.3125 183.745 78.875Z" fill="#1DBC79"/>
<path d="M168.815 79.0577C168.621 78.9607 168.448 78.8263 168.306 78.6621C168.165 78.4979 168.057 78.3073 167.99 78.1013L166.815 74.5436C166.679 74.128 166.712 73.6752 166.909 73.2845C167.106 72.8938 167.45 72.5971 167.865 72.4595L197.516 62.6691C197.932 62.5319 198.385 62.5654 198.776 62.7622C199.167 62.959 199.463 63.3031 199.601 63.7186L200.775 67.2762C200.912 67.6918 200.878 68.1446 200.681 68.5353C200.485 68.9259 200.141 69.2226 199.726 69.3603L170.074 79.1506C169.868 79.2191 169.651 79.2462 169.435 79.2302C169.219 79.2143 169.008 79.1556 168.815 79.0577Z" fill="#1DBC79"/>
<path d="M207.689 80.1567L194.381 68.1579C194.056 67.8646 193.861 67.4545 193.839 67.0176C193.816 66.5808 193.968 66.1528 194.26 65.8276L196.769 63.045C197.062 62.72 197.473 62.5248 197.91 62.5022C198.347 62.4796 198.775 62.6315 199.1 62.9245L212.407 74.9234C212.732 75.2167 212.927 75.6267 212.949 76.0636C212.972 76.5005 212.82 76.9284 212.528 77.2537L210.019 80.0361C209.874 80.1975 209.699 80.3286 209.503 80.4218C209.308 80.515 209.095 80.5685 208.879 80.579C208.85 80.5806 208.82 80.5814 208.791 80.5814C208.384 80.582 207.991 80.4306 207.689 80.1567Z" fill="#1DBC79"/>
<path d="M173.856 37.0521C181.006 37.0521 186.802 31.256 186.802 24.1061C186.802 16.9563 181.006 11.1602 173.856 11.1602C166.706 11.1602 160.91 16.9563 160.91 24.1061C160.91 31.256 166.706 37.0521 173.856 37.0521Z" fill="#1DBC79"/>
<path d="M158.704 75.4841C157.798 73.9365 157.321 72.1758 157.321 70.3826C157.321 68.5895 157.798 66.8287 158.704 65.2812L172.427 41.5125C172.572 41.2617 172.78 41.0534 173.031 40.9086C173.282 40.7637 173.566 40.6875 173.856 40.6875C174.146 40.6875 174.43 40.7637 174.681 40.9086C174.932 41.0534 175.14 41.2617 175.285 41.5125L196.415 78.1106C196.56 78.3615 196.636 78.646 196.636 78.9356C196.636 79.2253 196.56 79.5098 196.415 79.7606C196.27 80.0114 196.062 80.2197 195.811 80.3645C195.56 80.5093 195.276 80.5856 194.986 80.5856H167.54C165.747 80.5963 163.984 80.1293 162.431 79.2328C160.878 78.3362 159.592 77.0423 158.704 75.4841Z" fill="#CCCCCC"/>
<path d="M184.527 29.0311C185.366 29.0078 186.41 28.9787 187.215 28.3909C187.455 28.2087 187.651 27.9763 187.792 27.7101C187.932 27.4438 188.013 27.1501 188.027 26.8495C188.042 26.6358 188.007 26.4217 187.925 26.2238C187.843 26.0259 187.717 25.8497 187.555 25.7088C187.135 25.3536 186.521 25.2704 185.86 25.4648L186.545 20.4576L186.042 20.3887L185.237 26.2753L185.657 26.0825C186.144 25.8592 186.812 25.7456 187.227 26.0965C187.329 26.1883 187.409 26.3024 187.46 26.4298C187.51 26.5573 187.531 26.6948 187.52 26.8315C187.508 27.0553 187.447 27.2737 187.343 27.4721C187.239 27.6704 187.093 27.8439 186.916 27.9809C186.289 28.4383 185.457 28.4972 184.513 28.5236L184.527 29.0311Z" fill="#2F2E41"/>
<path d="M183.136 20.8906H180.402V21.3983H183.136V20.8906Z" fill="#2F2E41"/>
<path d="M166.18 8.83647C165.821 7.36714 165.154 5.99054 164.225 4.79713C163.295 3.60373 162.124 2.62054 160.787 1.91218C159.417 1.20773 157.906 0.817423 156.366 0.769627C154.825 0.721831 153.294 1.01774 151.882 1.63586C150.436 2.25519 149.152 3.19867 148.129 4.39338C147.106 5.58808 146.371 7.00202 145.982 8.52592C145.581 10.059 145.525 11.662 145.819 13.2191C146.18 14.8684 146.88 16.4245 147.875 17.7887C148.878 19.2409 150.057 20.5588 151.139 21.9502C152.225 23.3445 153.215 24.8117 154.1 26.3416C156.768 30.9512 158.459 36.0599 159.069 41.3506C159.276 42.9485 159.315 44.5636 159.186 46.1696C158.894 49.2884 157.686 52.3431 154.913 54.0401C153.438 54.9423 151.737 55.4082 150.054 55.7341C148.164 56.1344 146.231 56.2855 144.302 56.1836C141.042 55.9519 137.78 54.5914 135.886 51.8208C135.467 51.2038 135.139 50.5297 134.912 49.8193C134.761 49.3518 135.496 49.1515 135.646 49.6168C136.649 52.7258 139.693 54.6422 142.773 55.2265C144.691 55.5479 146.649 55.546 148.567 55.2209C150.309 54.9608 152.104 54.6007 153.701 53.832C155.151 53.1556 156.354 52.0431 157.142 50.65C157.855 49.3051 158.286 47.8292 158.41 46.3123C158.75 42.9911 158.197 39.5527 157.37 36.3402C156.484 32.9021 155.126 29.6034 153.334 26.5386C152.439 25.0072 151.436 23.5409 150.335 22.1506C149.244 20.7755 148.08 19.4531 147.096 17.9963C146.125 16.6222 145.441 15.0662 145.085 13.4215C144.782 11.8435 144.81 10.2197 145.167 8.6531C145.512 7.10702 146.188 5.65382 147.147 4.39308C148.106 3.13235 149.326 2.09389 150.724 1.3489C153.468 -0.0983145 156.81 -0.444819 159.745 0.621577C162.593 1.67244 164.911 3.80474 166.195 6.55508C166.504 7.22223 166.745 7.91871 166.915 8.63403C167.027 9.11067 166.293 9.31409 166.18 8.83647Z" fill="#2F2E41"/>
<path d="M163.706 9.45519C163.228 8.09461 162.266 6.95768 161.004 6.26174C159.741 5.5658 158.266 5.35969 156.86 5.6828C156.384 5.7943 156.18 5.06022 156.658 4.94847C158.259 4.5558 159.949 4.78075 161.391 5.57847C162.833 6.3762 163.922 7.68813 164.44 9.25275C164.6 9.71717 163.864 9.91665 163.706 9.45519Z" fill="#2F2E41"/>
<path d="M163.59 12.2088C163.444 11.8685 163.439 11.4844 163.576 11.1406C163.713 10.7968 163.981 10.5214 164.321 10.3749L167.82 8.87126C168.16 8.72505 168.544 8.71997 168.888 8.85714C169.232 8.99431 169.507 9.2625 169.654 9.6027C169.8 9.94289 169.805 10.3272 169.668 10.6712C169.53 11.0151 169.262 11.2905 168.922 11.4367L165.424 12.9403C165.084 13.0865 164.699 13.0915 164.355 12.9543C164.011 12.8172 163.736 12.549 163.59 12.2088Z" fill="#2F2E41"/>
<path d="M172.2 83.5581L168.466 83.255C168.03 83.219 167.626 83.0116 167.343 82.6783C167.059 82.345 166.92 81.9129 166.955 81.4768L169.33 52.2202C169.367 51.7588 169.495 51.3094 169.706 50.8975C169.917 50.4856 170.207 50.1192 170.56 49.8195C170.912 49.5197 171.321 49.2923 171.761 49.1503C172.202 49.0084 172.666 48.9546 173.127 48.992C173.588 49.0295 174.038 49.1575 174.45 49.3686C174.861 49.5798 175.228 49.8701 175.527 50.2228C175.827 50.5755 176.054 50.9839 176.196 51.4244C176.338 51.865 176.391 52.3292 176.353 52.7904L173.978 82.047C173.945 82.4597 173.757 82.8447 173.453 83.1256C173.149 83.4065 172.75 83.5629 172.336 83.5636C172.291 83.5636 172.246 83.5617 172.2 83.5581Z" fill="#1DBC79"/>
<path d="M3.63196 25.3038C2.29739 22.1838 4.12678 18.1133 7.34599 17.04C10.5652 15.9666 14.4713 18.1246 15.2762 21.4213C14.7558 20.1518 14.537 18.7789 14.637 17.4106C14.737 16.0423 15.1531 14.7158 15.8525 13.5355C16.5519 12.3552 17.5156 11.3532 18.6678 10.6084C19.82 9.86353 21.1292 9.39615 22.4926 9.24296C23.856 9.08977 25.2364 9.25497 26.5251 9.72555C27.8139 10.1961 28.9759 10.9593 29.9198 11.9549C30.8637 12.9506 31.5637 14.1517 31.9649 15.4637C32.366 16.7757 32.4573 18.1629 32.2316 19.5162C34.1722 16.6554 38.336 15.5749 41.4227 17.1312C44.5095 18.6875 46.1167 22.6777 44.9705 25.9391L2.48328 25.8632" fill="#F2F2F2"/>
<path d="M89.6845 60.8428C88.3499 57.7228 90.1793 53.6524 93.3985 52.579C96.6177 51.5056 100.524 53.6637 101.329 56.9603C100.808 55.6909 100.59 54.318 100.69 52.9497C100.789 51.5813 101.206 50.2549 101.905 49.0745C102.604 47.8942 103.568 46.8923 104.72 46.1474C105.872 45.4026 107.182 44.9352 108.545 44.782C109.909 44.6288 111.289 44.794 112.578 45.2646C113.866 45.7352 115.028 46.4983 115.972 47.494C116.916 48.4897 117.616 49.6908 118.017 51.0028C118.419 52.3148 118.51 53.702 118.284 55.0553C120.225 52.1944 124.388 51.114 127.475 52.6703C130.562 54.2266 132.169 58.2168 131.023 61.4781L88.5358 61.4022" fill="#F2F2F2"/>
</g>
<defs>
<clipPath id="clip0_216_1826">
<rect width="229.813" height="164" fill="white" transform="translate(0.339844)"/>
</clipPath>
</defs>
</svg>
