<svg width="27" height="24" viewBox="0 0 27 24" fill="none" xmlns="http://www.w3.org/2000/svg">
<path d="M25.501 21.7554H24.5117V1.96975C24.5117 1.70738 24.4075 1.45575 24.222 1.27022C24.0365 1.0847 23.7848 0.980469 23.5225 0.980469H16.5975C16.3351 0.980469 16.0835 1.0847 15.8979 1.27022C15.7124 1.45575 15.6082 1.70738 15.6082 1.96975V6.91617H9.67248C9.4101 6.91617 9.15848 7.0204 8.97295 7.20593C8.78742 7.39146 8.6832 7.64308 8.6832 7.90546V12.8519H3.73677C3.4744 12.8519 3.22277 12.9561 3.03724 13.1416C2.85172 13.3272 2.74749 13.5788 2.74749 13.8412V21.7554H1.75821C1.49583 21.7554 1.2442 21.8597 1.05868 22.0452C0.873149 22.2307 0.768921 22.4823 0.768921 22.7447C0.768921 23.0071 0.873149 23.2587 1.05868 23.4443C1.2442 23.6298 1.49583 23.734 1.75821 23.734H25.501C25.7634 23.734 26.015 23.6298 26.2006 23.4443C26.3861 23.2587 26.4903 23.0071 26.4903 22.7447C26.4903 22.4823 26.3861 22.2307 26.2006 22.0452C26.015 21.8597 25.7634 21.7554 25.501 21.7554ZM17.5868 2.95904H22.5332V21.7554H17.5868V2.95904ZM10.6618 8.89474H15.6082V21.7554H10.6618V8.89474ZM4.72606 14.8304H8.6832V21.7554H4.72606V14.8304Z" fill="#1DBC79"/>
</svg>
