<svg width="220" height="199" viewBox="0 0 220 199" fill="none" xmlns="http://www.w3.org/2000/svg">
<g clip-path="url(#clip0_216_1887)">
<path d="M119.923 62.3452L61.6524 76.1681C60.6518 76.4043 59.5985 76.2339 58.7234 75.6944C57.8483 75.1549 57.223 74.2903 56.9846 73.2903L46.1279 27.5238C45.9548 26.7908 46.0796 26.0191 46.4749 25.378C46.8701 24.7369 47.5035 24.2788 48.2361 24.1041L108.476 9.81393C109.222 9.63793 110.007 9.76491 110.659 10.167C111.312 10.5691 111.778 11.2135 111.955 11.9588L122.801 57.6774C123.037 58.678 122.866 59.7313 122.327 60.6064C121.787 61.4815 120.923 62.1068 119.923 62.3452Z" fill="#F2F2F2"/>
<path d="M64.4156 71.5256L115.369 59.4385C116.339 59.2083 117.178 58.6021 117.702 57.7532C118.225 56.9044 118.39 55.8824 118.16 54.9121L109.831 19.8024C109.601 18.8321 108.995 17.993 108.146 17.4697C107.297 16.9463 106.275 16.7816 105.305 17.0118L54.3511 29.0989C53.3808 29.3291 52.5417 29.9353 52.0184 30.7842C51.495 31.633 51.3303 32.655 51.5605 33.6253L59.8892 68.735C60.1194 69.7053 60.7256 70.5444 61.5744 71.0677C62.4233 71.5911 63.4453 71.7558 64.4156 71.5256Z" fill="white"/>
<path d="M111.84 11.7053L46.0233 27.3183L45.5676 25.3975C45.331 24.3936 45.5023 23.3368 46.0438 22.4589C46.5854 21.5811 47.4531 20.9539 48.4565 20.715L106.7 6.89857C107.704 6.66132 108.761 6.83193 109.639 7.37297C110.517 7.91401 111.145 8.78129 111.384 9.78454L111.84 11.7053Z" fill="#CCCCCC"/>
<path d="M52.4619 23.8203C53.0029 23.692 53.3373 23.1494 53.209 22.6085C53.0807 22.0676 52.5382 21.7331 51.9973 21.8614C51.4563 21.9897 51.1218 22.5323 51.2502 23.0732C51.3785 23.6141 51.921 23.9486 52.4619 23.8203Z" fill="white"/>
<path d="M56.1797 22.9375C56.7206 22.8091 57.0551 22.2666 56.9268 21.7257C56.7985 21.1848 56.256 20.8503 55.715 20.9786C55.1741 21.1069 54.8396 21.6494 54.9679 22.1904C55.0963 22.7313 55.6388 23.0658 56.1797 22.9375Z" fill="white"/>
<path d="M59.8975 22.0546C60.4384 21.9263 60.7729 21.3838 60.6446 20.8429C60.5163 20.302 59.9737 19.9675 59.4328 20.0958C58.8919 20.2241 58.5574 20.7666 58.6857 21.3076C58.814 21.8485 59.3566 22.183 59.8975 22.0546Z" fill="white"/>
<path d="M62.0032 44.6609L59.4798 45.2595C59.3429 45.2918 59.1988 45.2685 59.0791 45.1947C58.9593 45.1209 58.8738 45.0026 58.8412 44.8658L58.2426 42.3423C58.2102 42.2054 58.2336 42.0613 58.3074 41.9416C58.3812 41.8219 58.4995 41.7363 58.6363 41.7037L61.1597 41.1051C61.2966 41.0728 61.4407 41.0961 61.5604 41.1699C61.6802 41.2437 61.7657 41.362 61.7983 41.4988L62.3969 44.0223C62.4293 44.1592 62.4059 44.3033 62.3321 44.423C62.2583 44.5427 62.14 44.6283 62.0032 44.6609Z" fill="#1DBC79"/>
<path d="M63.5545 51.2L61.031 51.7986C60.8942 51.8309 60.7501 51.8076 60.6303 51.7338C60.5106 51.6599 60.4251 51.5417 60.3924 51.4048L59.7938 48.8814C59.7615 48.7445 59.7848 48.6004 59.8586 48.4807C59.9324 48.361 60.0507 48.2754 60.1875 48.2428L62.711 47.6442C62.8479 47.6119 62.992 47.6352 63.1117 47.709C63.2314 47.7828 63.317 47.9011 63.3496 48.0379L63.9482 50.5613C63.9805 50.6982 63.9572 50.8423 63.8834 50.9621C63.8096 51.0818 63.6913 51.1673 63.5545 51.2Z" fill="#3F3D56"/>
<path d="M65.1058 57.739L62.5823 58.3376C62.4454 58.3699 62.3013 58.3466 62.1816 58.2728C62.0619 58.199 61.9763 58.0807 61.9437 57.9439L61.3451 55.4205C61.3128 55.2836 61.3361 55.1395 61.4099 55.0197C61.4837 54.9 61.602 54.8145 61.7388 54.7819L64.2623 54.1832C64.3992 54.1509 64.5433 54.1742 64.663 54.248C64.7827 54.3219 64.8683 54.4401 64.9009 54.577L65.4995 57.1004C65.5318 57.2373 65.5085 57.3814 65.4347 57.5011C65.3609 57.6208 65.2426 57.7064 65.1058 57.739Z" fill="#CCCCCC"/>
<path d="M78.2211 39.481L66.0627 42.3652C65.9259 42.3974 65.782 42.3739 65.6625 42.3001C65.5429 42.2262 65.4576 42.1079 65.4252 41.9712C65.3927 41.8345 65.4159 41.6905 65.4895 41.5709C65.5631 41.4512 65.6812 41.3656 65.8178 41.3329L77.9763 38.4487C78.0441 38.4324 78.1145 38.4297 78.1834 38.4407C78.2523 38.4517 78.3183 38.4762 78.3777 38.5127C78.4371 38.5493 78.4888 38.5972 78.5296 38.6537C78.5705 38.7102 78.5999 38.7743 78.616 38.8421C78.6321 38.91 78.6346 38.9804 78.6235 39.0493C78.6123 39.1181 78.5877 39.1841 78.5511 39.2435C78.5144 39.3028 78.4664 39.3543 78.4098 39.3951C78.3532 39.4358 78.2891 39.465 78.2211 39.481Z" fill="#CCCCCC"/>
<path d="M79.7722 46.0201L67.6137 48.9043C67.4769 48.9364 67.333 48.913 67.2135 48.8391C67.094 48.7653 67.0086 48.647 66.9762 48.5103C66.9438 48.3736 66.9669 48.2296 67.0405 48.1099C67.1141 47.9903 67.2322 47.9047 67.3688 47.872L79.5273 44.9877C79.6642 44.9553 79.8084 44.9785 79.9281 45.0523C80.0479 45.1262 80.1334 45.2446 80.1659 45.3815C80.1984 45.5183 80.1751 45.6625 80.1013 45.7823C80.0275 45.9021 79.9091 45.9876 79.7722 46.0201Z" fill="#CCCCCC"/>
<path d="M81.3234 52.5591L69.165 55.4433C69.0282 55.4755 68.8843 55.452 68.7648 55.3782C68.6452 55.3043 68.5599 55.1861 68.5275 55.0494C68.495 54.9127 68.5182 54.7687 68.5918 54.649C68.6654 54.5293 68.7835 54.4437 68.9201 54.411L81.0786 51.5268C81.1464 51.5106 81.2168 51.5078 81.2857 51.5188C81.3546 51.5298 81.4206 51.5543 81.48 51.5908C81.5394 51.6274 81.5911 51.6753 81.6319 51.7318C81.6728 51.7883 81.7021 51.8524 81.7183 51.9203C81.7344 51.9881 81.7369 52.0585 81.7258 52.1274C81.7146 52.1962 81.69 52.2622 81.6534 52.3216C81.6167 52.3809 81.5687 52.4324 81.5121 52.4732C81.4555 52.514 81.3913 52.5432 81.3234 52.5591Z" fill="#CCCCCC"/>
<path d="M109.645 38.5638C109.607 38.3438 109.562 38.1235 109.51 37.9033C108.829 35.0338 107.037 32.5522 104.526 31.0045C102.016 29.4568 98.9935 28.9697 96.124 29.6504L98.8462 41.1256L109.645 38.5638Z" fill="#1DBC79"/>
<path d="M98.2599 42.3011L95.5377 30.8259C93.4257 31.3268 91.5065 32.4349 90.0167 34.0135C88.527 35.5921 87.5318 37.5722 87.1539 39.7097C86.776 41.8471 87.032 44.0484 87.8902 46.0422C88.7485 48.0359 90.1715 49.7348 91.9837 50.9295C93.796 52.1241 95.9182 52.7623 98.0888 52.7652C100.259 52.7681 102.383 52.1357 104.199 50.946C106.014 49.7562 107.442 48.0612 108.306 46.0698C109.169 44.0784 109.431 41.8778 109.059 39.7393L98.2599 42.3011Z" fill="#3F3D56"/>
<path d="M219.383 198.247H0.957323C0.8811 198.247 0.807998 198.216 0.7541 198.162C0.700201 198.109 0.669922 198.036 0.669922 197.959C0.669922 197.883 0.700201 197.81 0.7541 197.756C0.807998 197.702 0.8811 197.672 0.957323 197.672H219.383C219.459 197.672 219.532 197.702 219.586 197.756C219.64 197.81 219.67 197.883 219.67 197.959C219.67 198.036 219.64 198.109 219.586 198.162C219.532 198.216 219.459 198.247 219.383 198.247Z" fill="#CCCCCC"/>
<path d="M145.719 118.675C145.814 118.805 145.9 118.942 145.974 119.086L160.377 120.705L162.472 117.875L167.156 120.478L163.032 127.353L145.387 122.722C144.938 123.154 144.368 123.438 143.754 123.538C143.139 123.638 142.508 123.549 141.946 123.281C141.383 123.014 140.915 122.582 140.604 122.042C140.293 121.503 140.154 120.881 140.204 120.261C140.255 119.64 140.494 119.049 140.888 118.567C141.283 118.085 141.815 117.735 142.414 117.563C143.012 117.391 143.649 117.405 144.239 117.603C144.83 117.802 145.346 118.176 145.719 118.675Z" fill="#FFB8B8"/>
<path d="M72.2291 114.957C71.8649 115.171 71.4581 115.303 71.0375 115.343C70.6169 115.382 70.1926 115.33 69.7946 115.188C69.3966 115.046 69.0346 114.819 68.7339 114.522C68.4333 114.225 68.2014 113.866 68.0546 113.47L57.7866 113.684L60.6312 109.168L69.9458 109.657C70.6277 109.454 71.3602 109.509 72.0045 109.811C72.6488 110.112 73.1601 110.639 73.4415 111.293C73.723 111.946 73.755 112.68 73.5316 113.355C73.3081 114.031 72.8447 114.6 72.2291 114.957Z" fill="#FFB8B8"/>
<path d="M67.7164 113.664C67.6348 113.936 67.466 114.174 67.2361 114.341C67.0061 114.508 66.7277 114.595 66.4436 114.588L47.6513 114.11L30.6353 109.072C30.1671 108.934 29.7311 108.703 29.3526 108.395C28.9742 108.086 28.6609 107.705 28.4309 107.275C28.201 106.844 28.0589 106.372 28.0131 105.885C27.9673 105.399 28.0185 104.909 28.1639 104.443C28.3093 103.977 28.5459 103.544 28.86 103.17C29.1741 102.796 29.5594 102.488 29.9935 102.265C30.4276 102.041 30.9018 101.906 31.3886 101.867C31.8753 101.828 32.365 101.887 32.829 102.039L48.2022 107.079L66.6537 108.86C66.9768 108.893 67.2761 109.045 67.4924 109.288C67.7088 109.53 67.8266 109.844 67.8226 110.169L67.7692 113.317C67.7674 113.434 67.7496 113.551 67.7164 113.664Z" fill="#3F3D56"/>
<path d="M40.4638 194.456L43.9871 194.456L45.6635 180.865L40.4633 180.866L40.4638 194.456Z" fill="#FFB8B8"/>
<path d="M39.5649 193.305L46.5039 193.305H46.5042C47.0849 193.305 47.6599 193.419 48.1965 193.641C48.733 193.863 49.2205 194.189 49.6311 194.6C50.0417 195.01 50.3675 195.498 50.5897 196.034C50.8119 196.571 50.9263 197.146 50.9263 197.727V197.87L39.5652 197.871L39.5649 193.305Z" fill="#2F2E41"/>
<path d="M30.1173 194.456L33.6405 194.456L35.3169 180.865L30.1167 180.866L30.1173 194.456Z" fill="#FFB8B8"/>
<path d="M29.2186 193.305L36.1576 193.305H36.1579C36.7386 193.305 37.3136 193.419 37.8501 193.641C38.3867 193.863 38.8742 194.189 39.2848 194.6C39.6954 195.01 40.0212 195.498 40.2434 196.034C40.4656 196.571 40.58 197.146 40.58 197.727V197.87L29.2188 197.871L29.2186 193.305Z" fill="#2F2E41"/>
<path d="M27.7526 139.532L28.5939 189.452C28.5966 189.61 28.6318 189.766 28.6974 189.91C28.7631 190.054 28.8577 190.183 28.9753 190.288C29.093 190.394 29.2311 190.474 29.3812 190.524C29.5312 190.574 29.69 190.592 29.8474 190.578L33.9706 190.203C34.241 190.178 34.494 190.059 34.6848 189.865C34.8755 189.672 34.9917 189.418 35.0126 189.147L37.4265 158.008C37.4322 157.935 37.4656 157.867 37.5199 157.818C37.5742 157.768 37.6454 157.742 37.7187 157.743C37.7921 157.745 37.8621 157.774 37.9144 157.825C37.9668 157.877 37.9975 157.946 38.0002 158.02L39.2067 189.871C39.218 190.168 39.3439 190.449 39.5581 190.656C39.7724 190.862 40.0582 190.977 40.3555 190.977H44.7774C45.0701 190.977 45.3518 190.866 45.5651 190.665C45.7783 190.464 45.907 190.19 45.9248 189.898L49.0203 139.245L30.6266 134.646L27.7526 139.532Z" fill="#2F2E41"/>
<path d="M41.094 92.6568C44.9925 92.6568 48.1529 89.4964 48.1529 85.5979C48.1529 81.6994 44.9925 78.5391 41.094 78.5391C37.1955 78.5391 34.0352 81.6994 34.0352 85.5979C34.0352 89.4964 37.1955 92.6568 41.094 92.6568Z" fill="#FFB8B8"/>
<path d="M48.7498 141.381C48.7429 141.381 48.7361 141.381 48.7292 141.381L32.2235 141.127C31.9062 141.122 31.6018 141 31.3682 140.786C31.1346 140.571 30.9881 140.278 30.9565 139.962L30.7697 138.093C30.7661 138.058 30.7495 138.025 30.7231 138.001C30.6967 137.977 30.6623 137.964 30.6267 137.964C30.591 137.964 30.5567 137.977 30.5302 138.001C30.5038 138.025 30.4872 138.058 30.4837 138.093L30.2906 140.024C30.2607 140.326 30.1252 140.608 29.908 140.82C29.6908 141.032 29.4058 141.161 29.1029 141.184L27.9365 141.274C27.7309 141.29 27.5245 141.256 27.3345 141.176C27.1446 141.096 26.9765 140.972 26.8444 140.813C26.7122 140.655 26.6199 140.467 26.575 140.266C26.5301 140.065 26.534 139.856 26.5863 139.656L27.5906 135.827C29.669 127.868 29.8362 119.531 28.0786 111.496L27.5795 109.225C27.2033 107.529 27.3755 105.758 28.0713 104.166C28.7671 102.574 29.9505 101.244 31.4508 100.369L34.6928 98.4682L36.1637 96.2619C36.4484 95.836 36.8315 95.485 37.2806 95.2387C37.7298 94.9924 38.2317 94.8581 38.7439 94.8471C40.7957 94.8022 44.3155 95.178 44.9768 98.1783C46.6157 98.7382 48.0348 99.8032 49.0305 101.22C50.0262 102.637 50.5471 104.333 50.5185 106.065L50.0423 140.106C50.0375 140.445 49.8993 140.769 49.6574 141.008C49.4156 141.247 49.0896 141.381 48.7498 141.381Z" fill="#3F3D56"/>
<path d="M40.5419 89.6675C40.5129 90.6654 39.8202 91.2427 38.9697 91.7653C38.1191 92.288 37.1249 92.5146 36.1508 92.7332C36.02 92.8027 35.8735 92.8373 35.7254 92.8337C35.5774 92.83 35.4327 92.7883 35.3055 92.7125C35.1782 92.6367 35.0727 92.5294 34.999 92.4009C34.9253 92.2724 34.886 92.127 34.8848 91.9789L33.9914 88.5809C33.6754 87.4955 33.4454 86.3868 33.3037 85.2652C33.0885 83.107 33.6 80.7854 35.1063 79.225C36.6126 77.6646 39.225 77.1103 41.0301 78.3126C43.1723 75.5766 52.964 81.6214 50.5486 83.524C50.1189 83.8625 49.462 83.4342 48.9166 83.3927C48.3712 83.3512 47.76 83.4471 47.4135 83.8704C46.9608 84.4234 47.158 85.2472 46.9715 85.9371C46.8943 86.1798 46.7699 86.4049 46.6053 86.5993C46.4407 86.7937 46.2393 86.9536 46.0127 87.0697C45.786 87.1859 45.5386 87.2561 45.2847 87.2762C45.0307 87.2962 44.7754 87.2659 44.5333 87.1868C44.0823 86.9646 43.6581 86.6918 43.2687 86.3738C42.8504 86.0952 42.3217 85.8893 41.8508 86.065C41.23 86.2967 41.0095 87.0567 40.9534 87.7169C40.8588 88.3754 40.7213 89.0269 40.5419 89.6675Z" fill="#2F2E41"/>
<path opacity="0.2" d="M42.1906 108.586L43.3402 122.669L49.3756 137.326L40.4662 122.956L42.1906 108.586Z" fill="black"/>
<path d="M116.441 185.703L53.4508 148.333C52.3703 147.691 51.5888 146.646 51.2778 145.427C50.9668 144.209 51.1517 142.917 51.792 141.835L81.1428 92.3622C81.6137 91.5706 82.3793 90.9981 83.2718 90.7702C84.1642 90.5424 85.1106 90.6778 85.9033 91.1469L151.023 129.78C151.828 130.259 152.41 131.038 152.642 131.946C152.874 132.854 152.736 133.817 152.259 134.623L122.939 184.045C122.296 185.125 121.251 185.907 120.033 186.218C118.815 186.529 117.523 186.344 116.441 185.703Z" fill="#F2F2F2"/>
<path d="M59.8253 146.602L114.906 179.28C115.954 179.902 117.208 180.082 118.389 179.78C119.571 179.479 120.584 178.72 121.207 177.671L143.723 139.718C144.345 138.669 144.526 137.416 144.224 136.234C143.922 135.052 143.163 134.039 142.115 133.417L87.0343 100.739C85.9854 100.117 84.7323 99.9369 83.5506 100.239C82.3689 100.54 81.3555 101.299 80.7332 102.348L58.2167 140.301C57.5945 141.35 57.4144 142.603 57.716 143.785C58.0177 144.967 58.7764 145.98 59.8253 146.602Z" fill="white"/>
<path d="M152.371 134.304L81.224 92.0948L82.4558 90.0184C83.101 88.9345 84.1499 88.1507 85.3722 87.8391C86.5945 87.5274 87.8906 87.7134 88.976 88.3561L151.937 125.709C153.021 126.353 153.805 127.401 154.118 128.624C154.43 129.846 154.245 131.142 153.603 132.228L152.371 134.304Z" fill="#CCCCCC"/>
<path d="M90.4886 94.6633C91.1685 94.6633 91.7197 94.1121 91.7197 93.4322C91.7197 92.7523 91.1685 92.2012 90.4886 92.2012C89.8087 92.2012 89.2576 92.7523 89.2576 93.4322C89.2576 94.1121 89.8087 94.6633 90.4886 94.6633Z" fill="white"/>
<path d="M94.5074 97.0461C95.1873 97.0461 95.7385 96.4949 95.7385 95.815C95.7385 95.1351 95.1873 94.584 94.5074 94.584C93.8275 94.584 93.2764 95.1351 93.2764 95.815C93.2764 96.4949 93.8275 97.0461 94.5074 97.0461Z" fill="white"/>
<path d="M98.5262 99.4289C99.2061 99.4289 99.7573 98.8778 99.7573 98.1979C99.7573 97.518 99.2061 96.9668 98.5262 96.9668C97.8463 96.9668 97.2952 97.518 97.2952 98.1979C97.2952 98.8778 97.8463 99.4289 98.5262 99.4289Z" fill="white"/>
<path d="M136.541 141.51L136.461 141.645L137.271 142.125L137.351 141.99L136.541 141.51Z" fill="#E6E6E6"/>
<path d="M134.825 140.675L133.189 139.705L133.269 139.57L134.905 140.54L134.825 140.675ZM131.553 138.734L129.917 137.764L129.997 137.629L131.633 138.599L131.553 138.734ZM128.281 136.793L126.645 135.823L126.725 135.688L128.361 136.658L128.281 136.793ZM125.009 134.852L123.373 133.881L123.453 133.746L125.089 134.717L125.009 134.852ZM121.737 132.911L120.101 131.94L120.182 131.805L121.817 132.776L121.737 132.911ZM118.465 130.97L116.83 129.999L116.91 129.864L118.546 130.835L118.465 130.97ZM115.194 129.029L113.558 128.058L113.638 127.923L115.274 128.894L115.194 129.029ZM111.922 127.088L110.286 126.117L110.366 125.982L112.002 126.953L111.922 127.088ZM108.65 125.146L107.014 124.176L107.094 124.041L108.73 125.011L108.65 125.146ZM105.378 123.205L103.742 122.235L103.822 122.1L105.458 123.07L105.378 123.205ZM102.106 121.264L100.47 120.294L100.55 120.159L102.186 121.129L102.106 121.264ZM98.834 119.323L97.1981 118.353L97.2782 118.218L98.9141 119.188L98.834 119.323ZM95.5621 117.382L93.9262 116.411L94.0063 116.276L95.6422 117.247L95.5621 117.382ZM92.2902 115.441L90.6543 114.47L90.7343 114.335L92.3703 115.306L92.2902 115.441ZM89.0183 113.5L87.3824 112.529L87.4625 112.394L89.0984 113.365L89.0183 113.5ZM85.7464 111.559L84.1105 110.588L84.1905 110.453L85.8265 111.424L85.7464 111.559Z" fill="#E6E6E6"/>
<path d="M81.7447 109.002L81.6647 109.137L82.4745 109.617L82.5545 109.482L81.7447 109.002Z" fill="#E6E6E6"/>
<path d="M102.506 138.287L102.426 138.422L103.236 138.902L103.316 138.767L102.506 138.287Z" fill="#E6E6E6"/>
<path d="M100.814 137.467L99.2025 136.511L99.2826 136.376L100.894 137.332L100.814 137.467ZM97.5909 135.555L95.9792 134.599L96.0593 134.464L97.6709 135.42L97.5909 135.555ZM94.3676 133.643L92.7559 132.687L92.836 132.552L94.4477 133.508L94.3676 133.643ZM91.1443 131.73L89.5326 130.774L89.6127 130.639L91.2243 131.596L91.1443 131.73ZM87.921 129.818L86.3093 128.862L86.3894 128.727L88.0011 129.683L87.921 129.818ZM84.6977 127.906L83.086 126.95L83.1661 126.815L84.7777 127.771L84.6977 127.906ZM81.4744 125.994L79.8627 125.037L79.9428 124.903L81.5544 125.859L81.4744 125.994ZM78.2511 124.081L76.6394 123.125L76.7195 122.99L78.3311 123.946L78.2511 124.081Z" fill="#E6E6E6"/>
<path d="M74.2982 121.553L74.2181 121.688L75.0279 122.168L75.108 122.033L74.2982 121.553Z" fill="#E6E6E6"/>
<path d="M83.1919 134.857L83.1118 134.992L83.9216 135.473L84.0017 135.338L83.1919 134.857Z" fill="#E6E6E6"/>
<path d="M81.4537 134.011L79.7956 133.027L79.8756 132.892L81.5338 133.876L81.4537 134.011ZM78.1374 132.043L76.4792 131.059L76.5593 130.924L78.2175 131.908L78.1374 132.043ZM74.8211 130.076L73.163 129.092L73.243 128.957L74.9012 129.941L74.8211 130.076Z" fill="#E6E6E6"/>
<path d="M70.7749 127.492L70.6948 127.627L71.5046 128.107L71.5847 127.972L70.7749 127.492Z" fill="#E6E6E6"/>
<path d="M77.1796 144.992L77.0995 145.127L77.9093 145.607L77.9894 145.472L77.1796 144.992Z" fill="#E6E6E6"/>
<path d="M75.4414 144.143L73.7832 143.16L73.8633 143.025L75.5215 144.008L75.4414 144.143ZM72.1251 142.176L70.4669 141.192L70.547 141.057L72.2051 142.041L72.1251 142.176ZM68.8088 140.209L67.1506 139.225L67.2307 139.09L68.8888 140.074L68.8088 140.209Z" fill="#E6E6E6"/>
<path d="M64.7629 137.627L64.6829 137.762L65.4927 138.242L65.5727 138.107L64.7629 137.627Z" fill="#E6E6E6"/>
<path d="M69.187 140.572L115.864 168.264C116.995 168.933 118.345 169.126 119.618 168.801C120.892 168.476 121.984 167.66 122.656 166.53L136.294 143.542L136.2 143.49L105.257 151.388L102.806 141.791C102.761 141.613 102.676 141.449 102.557 141.31C102.438 141.171 102.288 141.061 102.12 140.99C101.862 140.886 101.577 140.87 101.31 140.944L85.0941 145.083L83.3017 138.066C83.263 137.914 83.195 137.772 83.1013 137.647C83.0077 137.522 82.8903 137.416 82.7558 137.336C82.6214 137.257 82.4726 137.204 82.3179 137.182C82.1632 137.16 82.0056 137.168 81.8542 137.207C81.7446 137.236 71.1929 140.032 69.187 140.572Z" fill="#1DBC79"/>
<path d="M68.9079 140.59L68.8691 140.438L81.8452 137.125C82.1879 137.038 82.5512 137.09 82.8554 137.271C83.1595 137.451 83.3797 137.745 83.4675 138.088L85.2236 144.967L101.349 140.85C101.692 140.763 102.055 140.815 102.359 140.996C102.664 141.176 102.884 141.47 102.972 141.813L105.386 151.272L136.491 143.332L136.529 143.484L105.273 151.463L102.819 141.851C102.781 141.702 102.714 141.561 102.621 141.437C102.529 141.313 102.413 141.209 102.28 141.13C102.147 141.051 102 140.999 101.847 140.977C101.694 140.955 101.538 140.964 101.388 141.002L85.1104 145.157L83.3155 138.126C83.2379 137.824 83.0437 137.565 82.7753 137.406C82.5069 137.247 82.1864 137.2 81.884 137.277L68.9079 140.59Z" fill="#3F3D56"/>
<path d="M83.9617 136.504C84.5684 136.504 85.0602 136.012 85.0602 135.405C85.0602 134.798 84.5684 134.307 83.9617 134.307C83.355 134.307 82.8632 134.798 82.8632 135.405C82.8632 136.012 83.355 136.504 83.9617 136.504Z" fill="#3F3D56"/>
<path d="M103.276 139.935C103.883 139.935 104.374 139.443 104.374 138.837C104.374 138.23 103.883 137.738 103.276 137.738C102.669 137.738 102.177 138.23 102.177 138.837C102.177 139.443 102.669 139.935 103.276 139.935Z" fill="#3F3D56"/>
<path d="M136.925 142.58C137.531 142.58 138.023 142.088 138.023 141.481C138.023 140.875 137.531 140.383 136.925 140.383C136.318 140.383 135.826 140.875 135.826 141.481C135.826 142.088 136.318 142.58 136.925 142.58Z" fill="#3F3D56"/>
<path d="M50.787 142.784C50.4576 142.519 50.1901 142.186 50.0035 141.807C49.8169 141.428 49.7157 141.012 49.707 140.59C49.6983 140.168 49.7823 139.748 49.9532 139.362C50.124 138.976 50.3775 138.631 50.6957 138.353L46.8507 128.83L52.0821 129.886L54.9313 138.768C55.3627 139.334 55.5716 140.038 55.5185 140.747C55.4653 141.457 55.1538 142.122 54.6429 142.617C54.1321 143.112 53.4574 143.402 52.7467 143.433C52.0361 143.464 51.3388 143.233 50.787 142.784Z" fill="#FFB8B8"/>
<path d="M50.7231 138.657C50.4397 138.678 50.1575 138.604 49.9198 138.449C49.6822 138.293 49.5023 138.063 49.4079 137.795L43.1835 120.058L41.8533 102.361C41.8166 101.874 41.8771 101.385 42.0313 100.922C42.1855 100.458 42.4302 100.03 42.7513 99.6621C43.0724 99.2942 43.4635 98.9937 43.9017 98.7783C44.34 98.5629 44.8167 98.4367 45.3041 98.4071C45.7916 98.3776 46.28 98.4452 46.7411 98.6062C47.2022 98.7671 47.6266 99.0181 47.9898 99.3445C48.353 99.671 48.6477 100.066 48.8567 100.508C49.0657 100.949 49.1849 101.428 49.2073 101.915L49.9521 118.077L54.8372 135.959C54.9213 136.272 54.8849 136.606 54.7351 136.895C54.5854 137.183 54.3332 137.405 54.0281 137.516L51.0668 138.583C50.9561 138.624 50.8405 138.648 50.7231 138.657Z" fill="#3F3D56"/>
<path d="M166.132 122.941C166.016 122.89 165.908 122.823 165.812 122.741L160.023 117.865C159.884 117.748 159.771 117.603 159.69 117.44C159.61 117.276 159.564 117.098 159.556 116.916C159.548 116.735 159.578 116.553 159.644 116.384C159.71 116.214 159.81 116.06 159.939 115.931L165.191 110.657C165.412 110.433 165.705 110.297 166.018 110.272C166.331 110.247 166.643 110.335 166.896 110.521L170.868 113.405C171.116 113.586 171.293 113.847 171.369 114.143C171.445 114.44 171.415 114.754 171.284 115.032L167.848 122.297C167.701 122.607 167.441 122.847 167.12 122.967C166.8 123.087 166.446 123.078 166.132 122.941Z" fill="#1DBC79"/>
<path d="M188.71 191.907L185.253 192.848L179.979 179.96L185.082 178.572L188.71 191.907Z" fill="#FFB8B8"/>
<path d="M182.445 192.549L189.182 190.716L190.324 194.914L179.459 197.87L179.44 197.8C179.142 196.705 179.291 195.537 179.855 194.552C180.418 193.567 181.35 192.847 182.445 192.549Z" fill="#2F2E41"/>
<path d="M159.155 194.545L155.572 194.544L153.868 180.725L159.156 180.725L159.155 194.545Z" fill="#FFB8B8"/>
<path d="M152.941 193.52H159.923V197.87H148.662V197.798C148.662 196.663 149.113 195.575 149.915 194.773C150.718 193.97 151.806 193.52 152.941 193.52Z" fill="#2F2E41"/>
<path d="M164.552 103.299C168.517 103.299 171.73 100.085 171.73 96.1212C171.73 92.157 168.517 88.9434 164.552 88.9434C160.588 88.9434 157.375 92.157 157.375 96.1212C157.375 100.085 160.588 103.299 164.552 103.299Z" fill="#FFB8B8"/>
<path d="M158.936 184.693H154.04C153.705 184.693 153.383 184.565 153.139 184.336C152.895 184.107 152.747 183.793 152.726 183.459C151.267 160.266 152.12 143.629 155.411 131.103C155.426 131.048 155.444 130.994 155.465 130.941L155.727 130.286C155.824 130.041 155.992 129.832 156.21 129.684C156.428 129.537 156.685 129.458 156.948 129.459H167.016C167.206 129.459 167.394 129.5 167.566 129.579C167.738 129.658 167.892 129.774 168.015 129.918L169.383 131.514C169.409 131.545 169.434 131.577 169.458 131.61C175.625 140.21 181.151 157.022 187.552 179.62C187.646 179.948 187.609 180.3 187.447 180.602C187.286 180.903 187.013 181.129 186.687 181.232L181.425 182.916C181.123 183.011 180.797 182.994 180.506 182.869C180.215 182.744 179.979 182.519 179.84 182.234L166.185 153.913C166.09 153.716 165.933 153.554 165.739 153.452C165.544 153.35 165.322 153.313 165.104 153.347C164.887 153.382 164.687 153.485 164.533 153.642C164.38 153.799 164.28 154.001 164.251 154.219L160.239 183.556C160.195 183.871 160.039 184.159 159.799 184.368C159.56 184.577 159.253 184.692 158.936 184.693Z" fill="#2F2E41"/>
<path d="M168.831 131.628C168.817 131.628 168.803 131.627 168.789 131.627L156.559 131.241C156.245 131.232 155.944 131.111 155.712 130.898C155.48 130.686 155.331 130.398 155.294 130.085C153.744 117.536 157.996 114.174 159.896 113.311C160.055 113.24 160.192 113.128 160.295 112.988C160.398 112.847 160.463 112.683 160.484 112.51L160.648 111.194C160.676 110.962 160.766 110.741 160.908 110.555C163.887 106.696 167.955 105.461 170.115 105.068C170.29 105.036 170.47 105.041 170.643 105.081C170.816 105.121 170.98 105.196 171.123 105.301C171.267 105.406 171.387 105.539 171.478 105.693C171.568 105.846 171.627 106.016 171.649 106.193L171.896 108.081C171.921 108.262 171.993 108.432 172.104 108.576C178.317 116.698 171.395 128.69 169.945 131.012C169.826 131.2 169.662 131.355 169.467 131.463C169.272 131.571 169.053 131.627 168.831 131.628Z" fill="#1DBC79"/>
<path d="M172.45 91.658C171.917 90.0419 171.523 88.383 171.273 86.6996C171.195 85.7196 171.446 84.665 172.16 83.9888C173.495 82.7233 175.765 83.3261 177.162 84.5238C179.181 86.2547 180.187 88.9147 180.568 91.5466C180.948 94.1784 180.781 96.8547 180.873 99.5124C180.964 102.17 181.344 104.903 182.699 107.191C184.054 109.479 186.568 111.235 189.22 111.041C190.291 110.983 191.307 110.552 192.093 109.823C192.479 109.456 192.771 109.002 192.946 108.498C193.12 107.995 193.171 107.457 193.094 106.93C194.449 109.358 193.762 112.647 191.74 114.555C189.719 116.463 186.609 117.003 183.951 116.188C181.293 115.373 179.105 113.331 177.798 110.877C176.492 108.423 176.013 105.588 176.082 102.809C176.135 100.675 176.498 98.5234 176.137 96.4192C175.777 94.315 174.46 92.1785 172.383 91.683L172.45 91.658Z" fill="#2F2E41"/>
<path d="M163.124 94.4249C162.77 95.6076 161.416 96.3369 160.198 96.1369C159.591 96.0107 159.03 95.7228 158.574 95.3036C158.118 94.8844 157.784 94.3495 157.608 93.7558C157.273 92.5529 157.41 91.2677 157.991 90.1623C158.311 89.4998 158.758 88.9069 159.308 88.4175C159.857 87.9281 160.498 87.5519 161.193 87.3104C161.892 87.0787 162.636 87.0185 163.363 87.1346C164.09 87.2508 164.778 87.54 165.37 87.9779C165.433 87.7122 165.566 87.4681 165.755 87.2708C165.944 87.0734 166.182 86.9299 166.444 86.855C166.973 86.7125 167.531 86.7208 168.055 86.8788C169.566 87.3094 170.876 88.2619 171.751 89.567C172.614 90.868 173.186 92.3408 173.425 93.8839C173.838 96.1981 173.685 98.7268 172.386 100.685C171.086 102.644 168.427 103.8 166.27 102.867C166.135 102.179 166.454 101.487 166.823 100.891C167.191 100.295 167.628 99.7144 167.77 99.0282C167.912 98.342 167.64 97.5026 166.976 97.2782C166.41 97.0868 165.806 97.397 165.21 97.4344C164.871 97.4557 164.532 97.3875 164.228 97.2367C163.924 97.0859 163.665 96.8577 163.477 96.5752C163.289 96.2926 163.178 95.9655 163.157 95.6268C163.135 95.288 163.202 94.9495 163.353 94.6451L163.124 94.4249Z" fill="#2F2E41"/>
<path d="M144.933 123.994C145.052 124.104 145.162 124.223 145.262 124.35L159.711 123.225L161.235 120.051L166.326 121.724L163.572 129.253L145.371 128.031C145.011 128.54 144.505 128.927 143.92 129.141C143.335 129.355 142.699 129.386 142.096 129.229C141.493 129.073 140.952 128.737 140.545 128.265C140.138 127.794 139.884 127.21 139.817 126.591C139.749 125.972 139.872 125.347 140.169 124.799C140.466 124.251 140.922 123.807 141.478 123.525C142.033 123.243 142.661 123.137 143.278 123.221C143.896 123.304 144.473 123.574 144.933 123.994Z" fill="#FFB8B8"/>
<path d="M166.247 126.738C166.126 126.703 166.009 126.651 165.902 126.583L159.503 122.542C159.35 122.444 159.218 122.316 159.116 122.166C159.014 122.015 158.944 121.845 158.912 121.666C158.879 121.487 158.884 121.303 158.926 121.126C158.968 120.949 159.046 120.783 159.156 120.637L163.641 114.696C163.829 114.445 164.101 114.27 164.408 114.202C164.714 114.135 165.035 114.18 165.311 114.33L169.639 116.646C169.91 116.791 170.121 117.025 170.236 117.309C170.352 117.593 170.365 117.908 170.273 118.2L167.859 125.867C167.756 126.193 167.531 126.466 167.23 126.629C166.929 126.791 166.577 126.831 166.247 126.738Z" fill="#1DBC79"/>
</g>
<defs>
<clipPath id="clip0_216_1887">
<rect width="219" height="198.246" fill="white" transform="translate(0.669922)"/>
</clipPath>
</defs>
</svg>
