<svg width="32" height="21" viewBox="0 0 32 21" fill="none" xmlns="http://www.w3.org/2000/svg">
<path d="M31.7315 10.0545C31.6863 9.95227 30.5904 7.52116 28.1541 5.08488C24.9079 1.83866 20.8077 0.123047 16.2949 0.123047C11.782 0.123047 7.68184 1.83866 4.43562 5.08488C1.99934 7.52116 0.898291 9.95615 0.858183 10.0545C0.799331 10.1869 0.768921 10.3301 0.768921 10.475C0.768921 10.6198 0.799331 10.7631 0.858183 10.8955C0.903467 10.9977 1.99934 13.4275 4.43562 15.8638C7.68184 19.1087 11.782 20.8243 16.2949 20.8243C20.8077 20.8243 24.9079 19.1087 28.1541 15.8638C30.5904 13.4275 31.6863 10.9977 31.7315 10.8955C31.7904 10.7631 31.8208 10.6198 31.8208 10.475C31.8208 10.3301 31.7904 10.1869 31.7315 10.0545ZM16.2949 18.7542C12.3125 18.7542 8.83335 17.3064 5.95328 14.4522C4.77156 13.277 3.76618 11.9369 2.96842 10.4737C3.76596 9.01028 4.77137 7.67018 5.95328 6.49516C8.83335 3.64097 12.3125 2.19317 16.2949 2.19317C20.2773 2.19317 23.7564 3.64097 26.6364 6.49516C27.8205 7.6699 28.8281 9.01 29.6278 10.4737C28.6949 12.2152 24.631 18.7542 16.2949 18.7542ZM16.2949 4.2633C15.0666 4.2633 13.8659 4.62753 12.8446 5.30994C11.8233 5.99235 11.0273 6.96227 10.5572 8.09707C10.0872 9.23187 9.96418 10.4806 10.2038 11.6853C10.4434 12.89 11.0349 13.9965 11.9035 14.8651C12.772 15.7336 13.8786 16.3251 15.0833 16.5647C16.288 16.8044 17.5367 16.6814 18.6715 16.2113C19.8063 15.7413 20.7762 14.9453 21.4586 13.924C22.141 12.9027 22.5052 11.702 22.5052 10.4737C22.5035 8.82711 21.8487 7.24847 20.6844 6.08417C19.5201 4.91987 17.9414 4.26501 16.2949 4.2633ZM16.2949 14.6139C15.476 14.6139 14.6755 14.3711 13.9947 13.9162C13.3138 13.4612 12.7831 12.8146 12.4698 12.0581C12.1564 11.3016 12.0744 10.4691 12.2342 9.66596C12.3939 8.86283 12.7882 8.12511 13.3673 7.54608C13.9463 6.96706 14.684 6.57273 15.4871 6.41298C16.2903 6.25323 17.1227 6.33522 17.8793 6.64859C18.6358 6.96195 19.2824 7.49262 19.7374 8.17348C20.1923 8.85434 20.4351 9.65482 20.4351 10.4737C20.4351 11.5717 19.9989 12.6248 19.2225 13.4013C18.446 14.1777 17.3929 14.6139 16.2949 14.6139Z" fill="#1DBC79"/>
</svg>
