<svg width="221" height="174" viewBox="0 0 221 174" fill="none" xmlns="http://www.w3.org/2000/svg">
<g clip-path="url(#clip0_216_1773)">
<path d="M40.2297 20.5233C39.8151 20.5691 39.4156 20.7052 39.0593 20.922C38.703 21.1389 38.3986 21.4312 38.1675 21.7784C37.9364 22.1256 37.7843 22.5193 37.7218 22.9317C37.6593 23.3441 37.688 23.7651 37.8058 24.1652L29.5569 30.0598L34.4739 31.952L41.5534 26.0643C42.2124 25.8218 42.7596 25.3459 43.0912 24.727C43.4228 24.108 43.5159 23.3888 43.3527 22.7058C43.1895 22.0228 42.7815 21.4234 42.2059 21.0212C41.6303 20.6189 40.9271 20.4418 40.2297 20.5233Z" fill="#FFB8B8"/>
<path d="M39.4624 29.4009L29.2303 39.6963C27.8281 41.0981 25.979 41.9644 24.0044 42.1446L11.3609 43.2982C10.8974 43.3424 10.4298 43.2933 9.98555 43.1537C9.54135 43.0141 9.12964 42.7869 8.77474 42.4855C8.28375 42.0745 7.91865 41.5334 7.72137 40.9243C7.52408 40.3151 7.50263 39.6627 7.65947 39.042C7.81632 38.4212 8.14509 37.8573 8.60802 37.4149C9.07096 36.9726 9.64928 36.6699 10.2765 36.5414L23.1932 33.7911L34.9529 25.1227C35.1164 25.0307 35.3011 24.983 35.4887 24.9844C35.6763 24.9858 35.8602 25.0362 36.0223 25.1306L39.2203 27.7504C39.4128 27.8559 39.5673 28.0189 39.6624 28.2167C39.7574 28.4144 39.7881 28.637 39.7503 28.8531C39.713 29.061 39.6124 29.2523 39.4624 29.4009Z" fill="#2F2E41"/>
<path d="M162.138 34.9334C162.214 34.2306 162.072 33.5213 161.731 32.9021C161.39 32.2829 160.867 31.7836 160.232 31.4723L96.5542 0.349255C96.1492 0.151142 95.7092 0.0347272 95.2593 0.00666003C94.8093 -0.0214072 94.3583 0.0394209 93.9319 0.185672C93.5054 0.331923 93.112 0.560735 92.774 0.859039C92.436 1.15734 92.1601 1.5193 91.962 1.92424L91.9608 1.92663L68.0774 50.7924C67.6788 51.6109 67.621 52.554 67.9167 53.4151C68.2124 54.2761 68.8374 54.9848 69.6548 55.3857L133.333 86.5088C134.151 86.9074 135.095 86.9652 135.956 86.6695C136.817 86.3738 137.525 85.7488 137.926 84.9314L161.81 36.0656C161.984 35.7102 162.095 35.327 162.138 34.9334Z" fill="#F2F2F2"/>
<path d="M124.833 143.392H42.2075C41.1673 143.391 40.17 142.977 39.4344 142.241C38.6989 141.506 38.2851 140.509 38.2839 139.468V27.3005C38.2851 26.2603 38.6989 25.263 39.4344 24.5274C40.17 23.7919 41.1673 23.3781 42.2075 23.377H124.833C125.873 23.3781 126.871 23.7919 127.606 24.5274C128.342 25.263 128.756 26.2603 128.757 27.3005V139.468C128.756 140.509 128.342 141.506 127.606 142.241C126.871 142.977 125.873 143.391 124.833 143.392Z" fill="white"/>
<path d="M64.1227 56.8243C67.0999 56.8243 69.5133 54.4108 69.5133 51.4336C69.5133 48.4564 67.0999 46.043 64.1227 46.043C61.1455 46.043 58.7321 48.4564 58.7321 51.4336C58.7321 54.4108 61.1455 56.8243 64.1227 56.8243Z" fill="#E6E6E6"/>
<path d="M55.9066 66.1682C56.6683 66.6011 57.4655 66.9685 58.2895 67.2663L58.4351 67.3167C60.0949 67.8995 61.8416 68.1961 63.6007 68.1941C63.9546 68.1941 64.2955 68.1818 64.6141 68.1576C65.3892 68.1101 66.1597 68.0039 66.9187 67.8398C67.3353 67.7488 67.7506 67.6399 68.1524 67.5166C68.2496 67.488 68.3396 67.4598 68.4381 67.429C70.0755 66.898 71.6143 66.1007 72.9923 65.069C72.8817 64.8598 72.7606 64.6563 72.6294 64.4593C71.9209 63.3767 70.9535 62.4879 69.815 61.8733C68.6764 61.2587 67.4025 60.9377 66.1087 60.9395H63.2715C61.775 60.9397 60.3102 61.3701 59.0514 62.1794C57.7926 62.9886 56.7929 64.1426 56.1714 65.5039C56.072 65.7207 55.9836 65.9424 55.9066 66.1682Z" fill="#E6E6E6"/>
<path d="M65.9519 67.7051C65.7709 67.7184 65.5966 67.7796 65.4469 67.8823C66.2076 67.8349 66.9635 67.73 67.7084 67.5684L65.9519 67.7051Z" fill="#2F2E41"/>
<path d="M64.4494 36.8066C60.9776 36.807 57.6029 37.9534 54.8493 40.068C52.0956 42.1826 50.117 45.147 49.2206 48.5011C48.3242 51.8553 48.56 55.4116 49.8916 58.618C51.2232 61.8243 53.5759 64.5015 56.5847 66.2339C57.3834 66.6964 58.2218 67.0866 59.09 67.4L59.2375 67.451C60.9122 68.039 62.6745 68.3383 64.4494 68.3362C64.7927 68.3362 65.136 68.3249 65.4736 68.2993C66.2552 68.2513 67.0319 68.1441 67.7973 67.9787C68.2258 67.8851 68.6457 67.7745 69.0428 67.6525C69.1392 67.6241 69.23 67.5957 69.3293 67.5645C72.8976 66.4022 75.9343 64.0053 77.8936 60.8045C79.8528 57.6038 80.6061 53.8091 80.0181 50.1027C79.4301 46.3962 77.5392 43.021 74.6855 40.5839C71.8317 38.1467 68.2023 36.8074 64.4494 36.8066ZM73.5964 64.3812C72.2364 65.4307 70.7055 66.2379 69.0712 66.7673C68.9832 66.7956 68.8924 66.824 68.8016 66.8524C68.4243 66.9687 68.0271 67.0708 67.6185 67.1588C66.8945 67.3168 66.1594 67.4193 65.4197 67.4652C65.0992 67.4879 64.7728 67.4992 64.4494 67.4992C62.7694 67.5002 61.1013 67.2173 59.5155 66.6623L59.3766 66.614C58.5131 66.3037 57.6809 65.9123 56.8912 65.4451C54.1407 63.8258 51.9821 61.3671 50.7327 58.4301C49.4832 55.4931 49.2087 52.2328 49.9495 49.1283C50.6903 46.0237 52.4074 43.2386 54.8484 41.1823C57.2894 39.1259 60.3256 37.9067 63.5109 37.7039C66.6961 37.501 69.8625 38.3252 72.5446 40.0552C75.2268 41.7853 77.2833 44.33 78.412 47.3155C79.5407 50.301 79.682 53.5698 78.8152 56.6415C77.9484 59.7133 76.1192 62.4261 73.5964 64.3812Z" fill="#CCCCCC"/>
<path d="M124.833 143.392H42.2075C41.1673 143.391 40.17 142.977 39.4344 142.241C38.6989 141.506 38.2851 140.509 38.2839 139.468V27.3005C38.2851 26.2603 38.6989 25.263 39.4344 24.5274C40.17 23.7919 41.1673 23.3781 42.2075 23.377H124.833C125.873 23.3781 126.871 23.7919 127.606 24.5274C128.342 25.263 128.756 26.2603 128.757 27.3005V139.468C128.756 140.509 128.342 141.506 127.606 142.241C126.871 142.977 125.873 143.391 124.833 143.392ZM42.2075 23.8385C41.2896 23.8396 40.4097 24.2047 39.7607 24.8537C39.1116 25.5027 38.7466 26.3827 38.7455 27.3005V139.468C38.7466 140.386 39.1116 141.266 39.7607 141.915C40.4097 142.564 41.2896 142.929 42.2075 142.93H124.833C125.751 142.929 126.631 142.564 127.28 141.915C127.929 141.266 128.294 140.386 128.295 139.468V27.3005C128.294 26.3827 127.929 25.5027 127.28 24.8537C126.631 24.2047 125.751 23.8396 124.833 23.8385L42.2075 23.8385Z" fill="#CCCCCC"/>
<path d="M108.838 52.5098H85.4577C84.9671 52.5098 84.4967 52.315 84.1498 51.9681C83.8029 51.6212 83.608 51.1507 83.608 50.6602C83.608 50.1696 83.8029 49.6992 84.1498 49.3523C84.4967 49.0054 84.9671 48.8105 85.4577 48.8105H108.838C109.328 48.8105 109.799 49.0054 110.146 49.3523C110.493 49.6992 110.688 50.1696 110.688 50.6602C110.688 51.1507 110.493 51.6212 110.146 51.9681C109.799 52.315 109.328 52.5098 108.838 52.5098Z" fill="#E6E6E6"/>
<path d="M116.468 58.752H85.4577C84.9671 58.752 84.4967 58.5571 84.1498 58.2103C83.8029 57.8634 83.608 57.3929 83.608 56.9024C83.608 56.4118 83.8029 55.9414 84.1498 55.5945C84.4967 55.2476 84.9671 55.0527 85.4577 55.0527H116.468C116.958 55.0527 117.429 55.2476 117.776 55.5945C118.122 55.9414 118.317 56.4118 118.317 56.9024C118.317 57.3929 118.122 57.8634 117.776 58.2103C117.429 58.5571 116.958 58.752 116.468 58.752Z" fill="#E6E6E6"/>
<path d="M108.804 82.6954H50.573C50.0825 82.6954 49.612 82.5005 49.2651 82.1536C48.9183 81.8067 48.7234 81.3363 48.7234 80.8457C48.7234 80.3552 48.9183 79.8847 49.2651 79.5378C49.612 79.191 50.0825 78.9961 50.573 78.9961H108.804C109.294 78.9961 109.765 79.191 110.112 79.5378C110.458 79.8847 110.653 80.3552 110.653 80.8457C110.653 81.3363 110.458 81.8067 110.112 82.1536C109.765 82.5005 109.294 82.6954 108.804 82.6954Z" fill="#E6E6E6"/>
<path d="M116.433 88.9376H50.573C50.0825 88.9376 49.612 88.7427 49.2651 88.3958C48.9183 88.0489 48.7234 87.5785 48.7234 87.0879C48.7234 86.5974 48.9183 86.1269 49.2651 85.78C49.612 85.4332 50.0825 85.2383 50.573 85.2383H116.433C116.924 85.2383 117.394 85.4332 117.741 85.78C118.088 86.1269 118.283 86.5974 118.283 87.0879C118.283 87.5785 118.088 88.0489 117.741 88.3958C117.394 88.7427 116.924 88.9376 116.433 88.9376Z" fill="#E6E6E6"/>
<path d="M108.804 103.285H50.573C50.0825 103.285 49.612 103.09 49.2651 102.743C48.9183 102.397 48.7234 101.926 48.7234 101.436C48.7234 100.945 48.9183 100.475 49.2651 100.128C49.612 99.7808 50.0825 99.5859 50.573 99.5859H108.804C109.294 99.5859 109.765 99.7808 110.112 100.128C110.458 100.475 110.653 100.945 110.653 101.436C110.653 101.926 110.458 102.397 110.112 102.743C109.765 103.09 109.294 103.285 108.804 103.285Z" fill="#E6E6E6"/>
<path d="M116.433 109.527H50.573C50.0825 109.527 49.612 109.333 49.2651 108.986C48.9183 108.639 48.7234 108.168 48.7234 107.678C48.7234 107.187 48.9183 106.717 49.2651 106.37C49.612 106.023 50.0825 105.828 50.573 105.828H116.433C116.924 105.828 117.394 106.023 117.741 106.37C118.088 106.717 118.283 107.187 118.283 107.678C118.283 108.168 118.088 108.639 117.741 108.986C117.394 109.333 116.924 109.527 116.433 109.527Z" fill="#E6E6E6"/>
<path d="M108.804 123.875H50.573C50.0825 123.875 49.612 123.68 49.2651 123.333C48.9183 122.986 48.7234 122.516 48.7234 122.025C48.7234 121.535 48.9183 121.064 49.2651 120.718C49.612 120.371 50.0825 120.176 50.573 120.176H108.804C109.294 120.176 109.765 120.371 110.112 120.718C110.458 121.064 110.653 121.535 110.653 122.025C110.653 122.516 110.458 122.986 110.112 123.333C109.765 123.68 109.294 123.875 108.804 123.875Z" fill="#E6E6E6"/>
<path d="M116.433 130.117H50.573C50.0825 130.117 49.612 129.922 49.2651 129.576C48.9183 129.229 48.7234 128.758 48.7234 128.268C48.7234 127.777 48.9183 127.307 49.2651 126.96C49.612 126.613 50.0825 126.418 50.573 126.418H116.433C116.924 126.419 117.394 126.614 117.74 126.961C118.086 127.307 118.281 127.777 118.281 128.268C118.281 128.758 118.086 129.228 117.74 129.575C117.394 129.922 116.924 130.117 116.433 130.117Z" fill="#E6E6E6"/>
<path d="M159.301 66.9939C159.377 66.2911 159.235 65.5819 158.894 64.9627C158.553 64.3434 158.03 63.8442 157.395 63.5328L93.717 32.4098C93.3121 32.2117 92.8721 32.0953 92.4221 32.0672C91.9722 32.0391 91.5211 32.1 91.0947 32.2462C90.6683 32.3925 90.2749 32.6213 89.9369 32.9196C89.5989 33.2179 89.3229 33.5798 89.1248 33.9848L89.1236 33.9872L65.2402 82.8529C64.8416 83.6714 64.7838 84.6146 65.0795 85.4756C65.3752 86.3367 66.0002 87.0454 66.8176 87.4463L130.496 118.569C131.314 118.968 132.257 119.026 133.118 118.73C133.979 118.434 134.688 117.809 135.089 116.992L158.972 68.1262C159.147 67.7707 159.258 67.3876 159.301 66.9939Z" fill="white"/>
<path d="M159.301 66.9939C159.377 66.2911 159.235 65.5819 158.894 64.9627C158.553 64.3434 158.03 63.8442 157.395 63.5328L93.717 32.4098C93.3121 32.2117 92.8721 32.0953 92.4221 32.0672C91.9722 32.0391 91.5211 32.1 91.0947 32.2462C90.6683 32.3925 90.2749 32.6213 89.9369 32.9196C89.5989 33.2179 89.3229 33.5798 89.1248 33.9848L89.1236 33.9872L65.2402 82.8529C64.8416 83.6714 64.7838 84.6146 65.0795 85.4756C65.3752 86.3367 66.0002 87.0454 66.8176 87.4463L130.496 118.569C131.314 118.968 132.257 119.026 133.118 118.73C133.979 118.434 134.688 117.809 135.089 116.992L158.972 68.1262C159.147 67.7707 159.258 67.3876 159.301 66.9939ZM134.726 116.815C134.372 117.536 133.747 118.087 132.987 118.348C132.228 118.609 131.395 118.558 130.673 118.206L66.995 87.0833C66.2737 86.7297 65.7221 86.1044 65.4612 85.3446C65.2003 84.5848 65.2513 83.7525 65.6032 83.0303L89.4866 34.1646C89.8403 33.4433 90.4656 32.8917 91.2254 32.6307C91.9852 32.3698 92.8174 32.4209 93.5396 32.7728L157.218 63.8958C157.939 64.2495 158.491 64.8748 158.752 65.6346C159.012 66.3943 158.961 67.2266 158.61 67.9488L134.726 116.815Z" fill="#3F3D56"/>
<path d="M152.355 69.2158L135.678 103.337C135.567 103.565 135.37 103.739 135.13 103.822C134.89 103.904 134.628 103.888 134.4 103.777L76.4762 75.4661C76.4348 75.4462 76.3951 75.4229 76.3577 75.3963C76.1678 75.267 76.0308 75.0736 75.9719 74.8516C75.913 74.6295 75.9361 74.3936 76.037 74.1872L92.714 40.0657C92.7691 39.9529 92.8458 39.8521 92.9399 39.7689C93.0339 39.6858 93.1435 39.622 93.2622 39.5812C93.3809 39.5404 93.5064 39.5234 93.6317 39.5311C93.757 39.5388 93.8796 39.5712 93.9924 39.6262L151.916 67.9369C152.144 68.0481 152.318 68.2453 152.401 68.485C152.483 68.7247 152.467 68.9874 152.356 69.2152L152.355 69.2158Z" fill="#E6E6E6"/>
<path d="M101.502 67.4842C106.135 67.4842 109.891 63.7285 109.891 59.0956C109.891 54.4627 106.135 50.707 101.502 50.707C96.8696 50.707 93.1139 54.4627 93.1139 59.0956C93.1139 63.7285 96.8696 67.4842 101.502 67.4842Z" fill="#1DBC79"/>
<path d="M113.785 93.8702L76.8129 75.7998C76.7663 75.7778 76.7218 75.7515 76.6801 75.7213L108.97 53.9793C109.169 53.8428 109.4 53.7616 109.641 53.7439C109.882 53.7262 110.123 53.7727 110.339 53.8787C110.556 53.9846 110.741 54.1461 110.875 54.3468C111.008 54.5475 111.087 54.7801 111.101 55.0209L112.902 81.0826L112.989 82.33L113.785 93.8702Z" fill="#3F3D56"/>
<path opacity="0.2" d="M113.785 93.8714L101.162 87.7017L111.758 81.7294L112.521 81.2993L112.902 81.084L112.989 82.3312L113.785 93.8714Z" fill="black"/>
<path d="M134.371 103.933L102.393 88.3037L112.989 82.3314L113.752 81.901L127.56 74.1177C128.465 73.6076 129.762 74.1822 130.056 75.1581C130.076 75.2243 130.091 75.2917 130.101 75.3599L134.371 103.933Z" fill="#3F3D56"/>
<path d="M35.7041 106.911L39.1822 106.911L40.8371 93.4941L35.7032 93.4944L35.7041 106.911Z" fill="#FFB8B8"/>
<path d="M34.8168 105.774L41.6668 105.773C42.2401 105.773 42.808 105.886 43.3377 106.106C43.8673 106.325 44.3485 106.647 44.7539 107.052C45.1593 107.457 45.4808 107.939 45.7002 108.468C45.9196 108.998 46.0325 109.566 46.0325 110.139V110.281L34.817 110.281L34.8168 105.774Z" fill="#2F2E41"/>
<path d="M8.66785 104.697L12.2716 105.402L16.7056 91.8373L11.387 90.7969L8.66785 104.697Z" fill="#FFB8B8"/>
<path d="M7.979 103.34L15.076 104.728L15.0763 104.728C15.6702 104.844 16.2355 105.076 16.7398 105.411C17.244 105.746 17.6774 106.176 18.0152 106.678C18.3531 107.181 18.5887 107.744 18.7086 108.338C18.8285 108.931 18.8304 109.542 18.7142 110.136L18.6855 110.283L7.06555 108.01L7.979 103.34Z" fill="#2F2E41"/>
<path d="M40.7646 60.6294C40.6468 60.2292 40.4427 59.8598 40.1668 59.5471C39.8908 59.2344 39.5496 58.9859 39.1672 58.8193C38.7848 58.6528 38.3706 58.572 37.9536 58.5828C37.5367 58.5937 37.1272 58.6958 36.7539 58.882L29.5038 51.7949L28.5034 56.9676L35.5417 62.9046C35.8961 63.5108 36.4605 63.966 37.1281 64.1839C37.7956 64.4018 38.5199 64.3673 39.1637 64.0868C39.8075 63.8064 40.326 63.2995 40.6211 62.6623C40.9161 62.025 40.9672 61.3017 40.7646 60.6294Z" fill="#FFB8B8"/>
<path d="M13.8656 24.1517C17.7142 24.1517 20.834 21.0318 20.834 17.1832C20.834 13.3347 17.7142 10.2148 13.8656 10.2148C10.0171 10.2148 6.89722 13.3347 6.89722 17.1832C6.89722 21.0318 10.0171 24.1517 13.8656 24.1517Z" fill="#FFB8B8"/>
<path d="M12.4023 24.2599C12.7725 24.4219 13.5307 21.4718 13.1911 20.8817C12.686 20.0042 12.7159 20.0105 12.3806 19.4299C12.0453 18.8493 11.9703 18.0547 12.4045 17.5439C12.8387 17.033 13.8435 17.1008 14.0416 17.7413C13.9142 16.5248 15.1175 15.5468 16.3094 15.272C17.5013 14.9972 18.7586 15.1679 19.9571 14.9233C21.348 14.6395 22.7951 13.4736 22.2402 11.9441C22.145 11.6894 22.0024 11.4551 21.82 11.2535C21.1788 10.5326 20.2819 10.2247 19.405 9.9271C17.5807 9.30789 15.7064 8.68091 13.7811 8.74927C12.1947 8.83222 10.6669 9.37581 9.3847 10.3135C8.10246 11.2513 7.12139 12.5424 6.56154 14.029C6.42885 14.4009 6.32606 14.7828 6.25415 15.1711C5.5933 18.7245 7.65676 22.2294 11.0082 23.5825L12.4023 24.2599Z" fill="#2F2E41"/>
<path d="M10.6913 62.5392C10.5136 62.4317 10.3712 62.2747 10.2815 62.0873C10.1919 61.8999 10.159 61.6905 10.1869 61.4847L7.04247 45.9082L3.85508 33.9538C3.50516 32.6439 3.61091 31.2539 4.15485 30.012C4.6988 28.77 5.64871 27.7498 6.84873 27.1188L8.95591 25.125L13.5528 27.1055L15.7372 29.3265C17.3039 30.0893 18.6936 31.1715 19.8171 32.5035C20.9406 33.8356 21.773 35.3879 22.2607 37.0608L25.7642 49.0493L33.8551 61.0865C33.9902 61.2871 34.0533 61.5275 34.0343 61.7687C34.0153 62.0098 33.9151 62.2373 33.7503 62.4142C32.6247 63.625 10.6913 62.5392 10.6913 62.5392Z" fill="#2F2E41"/>
<path d="M31.8888 61.4319L19.9583 53.1645C18.3322 52.0298 17.155 50.3614 16.6312 48.449L13.2776 36.204C13.1527 35.7554 13.1191 35.2864 13.1786 34.8246C13.2381 34.3628 13.3896 33.9176 13.6241 33.5153C13.9425 32.9599 14.4112 32.5055 14.9763 32.2044C15.5413 31.9034 16.1799 31.7678 16.8185 31.8133C17.4572 31.8588 18.0701 32.0836 18.5867 32.4617C19.1034 32.8399 19.5029 33.3561 19.7394 33.9512L24.7128 46.1851L35.3097 56.2419C35.429 56.3867 35.5083 56.5601 35.5398 56.7451C35.5714 56.93 35.554 57.12 35.4895 57.2961L33.4713 60.9041C33.4012 61.112 33.2678 61.2928 33.0898 61.421C32.9118 61.5493 32.6981 61.6186 32.4787 61.6192C32.2675 61.6189 32.0615 61.5535 31.8888 61.4319Z" fill="#2F2E41"/>
<path d="M7.10317 102.621C7.00563 102.481 6.94317 102.32 6.92107 102.151C6.89897 101.982 6.91788 101.81 6.9762 101.65L12.4955 81.5851L12.9035 61.9249L31.4832 60.6506L31.5734 60.6445L37.1694 70.7872C38.9215 73.9583 39.994 77.4594 40.3188 81.0678L42.163 101.277C42.1908 101.552 42.1099 101.826 41.9374 102.042C41.7649 102.257 41.5148 102.397 41.2407 102.43L35.6385 102.963C35.3686 102.996 35.0965 102.922 34.8803 102.757C34.6641 102.592 34.5209 102.349 34.4813 102.08L32.2064 81.5438L24.0212 67.7139L21.2737 82.2739L15.5815 102.381C15.5071 102.581 15.3734 102.755 15.1981 102.878C15.0229 103.001 14.8144 103.067 14.6003 103.069L7.9613 103.072C7.79227 103.073 7.62562 103.032 7.476 102.953C7.32638 102.875 7.19835 102.76 7.10317 102.621Z" fill="#2F2E41"/>
<path d="M149.367 168.609H9.36269C6.88041 168.606 4.5006 167.619 2.74537 165.864C0.990128 164.108 0.00280398 161.729 0 159.246V82.3588C0.00280398 79.8765 0.990128 77.4967 2.74537 75.7415C4.5006 73.9862 6.88041 72.9989 9.36269 72.9961H26.5284C28.8575 72.9941 31.1033 73.8622 32.8255 75.4303L51.4407 88.7228C52.6543 89.8318 54.2393 90.4462 55.8834 90.4447H150.237C151.478 90.4448 152.706 90.6915 153.851 91.1706C154.996 91.6497 156.034 92.3517 156.905 93.2356C157.777 94.1195 158.463 95.1678 158.926 96.3196C159.388 97.4713 159.617 98.7034 159.598 99.9443L158.729 159.383C158.683 161.839 157.678 164.18 155.928 165.904C154.179 167.628 151.824 168.599 149.367 168.609Z" fill="white"/>
<path d="M148.124 164.071H10.1909C8.99347 164.069 7.84544 163.593 6.9987 162.746C6.15196 161.899 5.67567 160.751 5.67432 159.554V81.4092C5.67567 80.2117 6.15196 79.0637 6.9987 78.217C7.84544 77.3702 8.99348 76.8939 10.1909 76.8926C11.2501 76.8938 12.2655 77.315 13.0145 78.064C13.7634 78.8129 14.1847 79.8283 14.1859 80.8875V154.163C14.1871 155.286 14.6335 156.361 15.4271 157.155C16.2206 157.949 17.2965 158.395 18.4188 158.396H147.658C148.3 158.389 148.926 158.597 149.436 158.987C149.946 159.378 150.31 159.927 150.471 160.549C150.651 161.138 150.629 161.771 150.407 162.346C150.186 162.921 149.778 163.406 149.249 163.722C148.913 163.941 148.524 164.061 148.124 164.071Z" fill="#F2F2F2"/>
<path d="M80.4126 126.541L80.0494 126.178C79.9742 126.108 79.93 126.01 79.9266 125.907C79.9232 125.804 79.9609 125.704 80.0314 125.629C80.0372 125.623 80.0432 125.617 80.0494 125.611L83.2355 122.422C83.2704 122.385 83.3123 122.355 83.3588 122.333C83.4053 122.312 83.4555 122.301 83.5065 122.299C83.5575 122.297 83.6084 122.306 83.6562 122.324C83.7039 122.342 83.7477 122.369 83.785 122.404C83.7912 122.41 83.7972 122.416 83.803 122.422L86.9891 125.608C87.0264 125.644 87.0562 125.687 87.0769 125.734C87.0975 125.782 87.1086 125.833 87.1095 125.885C87.1104 125.937 87.1011 125.988 87.0822 126.036C87.0632 126.084 87.0349 126.128 86.9989 126.166L86.9891 126.175L86.626 126.539C86.59 126.576 86.547 126.606 86.4996 126.626C86.4521 126.647 86.401 126.658 86.3492 126.659C86.2974 126.66 86.246 126.651 86.1978 126.632C86.1496 126.613 86.1056 126.584 86.0683 126.548L86.0585 126.539L84.1747 124.553V129.265C84.175 129.317 84.1653 129.368 84.1459 129.415C84.1266 129.463 84.0981 129.506 84.062 129.543C84.0259 129.579 83.983 129.609 83.9356 129.629C83.8882 129.649 83.8374 129.659 83.786 129.659L83.7831 129.659H83.2582C83.1537 129.659 83.0533 129.618 82.9794 129.544C82.9054 129.47 82.8639 129.37 82.8639 129.265V124.558L80.98 126.544C80.907 126.619 80.8072 126.662 80.7026 126.663C80.598 126.665 80.4972 126.624 80.4223 126.551L80.4126 126.541Z" fill="#1DBC79"/>
<path d="M83.5137 119.525C84.7926 119.525 86.0427 119.904 87.106 120.615C88.1693 121.325 88.9981 122.335 89.4875 123.516C89.9769 124.698 90.1049 125.998 89.8554 127.252C89.606 128.507 88.9901 129.659 88.0858 130.563C87.1816 131.467 86.0295 132.083 84.7752 132.333C83.5209 132.582 82.2208 132.454 81.0393 131.965C79.8578 131.475 78.848 130.647 78.1375 129.583C77.427 128.52 77.0478 127.27 77.0478 125.991C77.0493 124.276 77.731 122.633 78.9433 121.42C80.1556 120.208 81.7993 119.526 83.5137 119.525ZM83.5137 118.674C82.0666 118.674 80.6519 119.103 79.4486 119.907C78.2453 120.711 77.3074 121.854 76.7536 123.191C76.1998 124.528 76.0549 125.999 76.3373 127.418C76.6196 128.838 77.3165 130.142 78.3398 131.165C79.3631 132.188 80.6669 132.885 82.0862 133.167C83.5056 133.45 84.9768 133.305 86.3139 132.751C87.6509 132.197 88.7937 131.259 89.5977 130.056C90.4017 128.853 90.8308 127.438 90.8308 125.991C90.8308 124.05 90.0599 122.189 88.6877 120.817C87.3155 119.445 85.4544 118.674 83.5137 118.674Z" fill="#3F3D56"/>
<path d="M149.367 168.609H9.36269C6.88041 168.606 4.5006 167.619 2.74537 165.864C0.990128 164.108 0.00280398 161.729 0 159.246V82.3588C0.00280398 79.8765 0.990128 77.4967 2.74537 75.7415C4.5006 73.9862 6.88041 72.9989 9.36269 72.9961H26.5284C28.8575 72.9941 31.1033 73.8622 32.8255 75.4303L51.4407 88.7228C52.6543 89.8318 54.2393 90.4462 55.8834 90.4447H150.237C151.478 90.4448 152.706 90.6915 153.851 91.1706C154.996 91.6497 156.034 92.3517 156.905 93.2356C157.777 94.1195 158.463 95.1678 158.926 96.3196C159.388 97.4713 159.617 98.7034 159.598 99.9443L158.729 159.383C158.683 161.839 157.678 164.18 155.928 165.904C154.179 167.628 151.824 168.599 149.367 168.609ZM9.36269 73.5635C7.03086 73.5662 4.79529 74.4937 3.14644 76.1425C1.49758 77.7914 0.570086 80.027 0.567436 82.3588V159.246C0.570086 161.578 1.49758 163.814 3.14644 165.463C4.79529 167.111 7.03086 168.039 9.36269 168.042H149.367C151.675 168.032 153.887 167.12 155.531 165.5C157.174 163.881 158.119 161.682 158.162 159.375L159.031 99.936C159.048 98.7703 158.833 97.6128 158.399 96.5309C157.965 95.449 157.32 94.4642 156.501 93.6339C155.683 92.8035 154.708 92.1441 153.632 91.694C152.557 91.244 151.403 91.0122 150.237 91.0122H55.8834C54.1037 91.0137 52.3875 90.3509 51.0709 89.1535L32.4558 75.861C30.8365 74.3813 28.7219 73.5617 26.5284 73.5635H9.36269Z" fill="#3F3D56"/>
<path d="M161.233 170.106H157.754L156.667 156.689L161.233 156.69L161.233 170.106Z" fill="#FFB8B8"/>
<path d="M162.12 173.478L150.904 173.478V173.336C150.904 172.763 151.017 172.195 151.236 171.665C151.456 171.136 151.777 170.655 152.183 170.249C152.588 169.844 153.069 169.522 153.599 169.303C154.129 169.084 154.696 168.971 155.27 168.971L162.12 168.971L162.12 173.478Z" fill="#2F2E41"/>
<path d="M200.102 170.106H196.624L194.969 156.689L200.102 156.69L200.102 170.106Z" fill="#FFB8B8"/>
<path d="M200.989 173.478L189.774 173.478V173.336C189.774 172.763 189.886 172.195 190.106 171.665C190.325 171.136 190.647 170.655 191.052 170.249C191.458 169.844 191.939 169.522 192.468 169.303C192.998 169.084 193.566 168.971 194.139 168.971L200.989 168.971L200.989 173.478Z" fill="#2F2E41"/>
<path d="M188.665 128.631C189.145 128.069 189.416 127.357 189.431 126.617C189.446 125.878 189.204 125.156 188.748 124.574C188.655 124.462 188.553 124.359 188.444 124.264L191.064 114.592L186.697 116.04L184.879 125.003C184.577 125.556 184.443 126.185 184.495 126.813C184.546 127.44 184.78 128.039 185.167 128.536C185.37 128.803 185.63 129.022 185.929 129.176C186.228 129.33 186.557 129.414 186.893 129.424C187.229 129.433 187.562 129.366 187.869 129.229C188.176 129.092 188.448 128.888 188.665 128.631Z" fill="#FFB8B8"/>
<path d="M188.497 122.68C188.442 122.68 188.388 122.676 188.333 122.668L186.058 122.325C185.881 122.295 185.713 122.226 185.565 122.123C185.418 122.021 185.294 121.888 185.203 121.733C185.006 121.403 184.935 121.012 185.004 120.634L187.843 104.779L185.917 94.5935C185.546 92.6332 186.504 90.6534 188.145 89.9882C188.632 89.7891 189.162 89.7196 189.684 89.7864C190.205 89.8532 190.701 90.0542 191.122 90.3696C191.576 90.7135 191.953 91.1491 192.227 91.6481C192.502 92.1471 192.669 92.6983 192.717 93.2659L194.079 106.253L194.063 106.31L189.678 121.701C189.615 121.971 189.465 122.212 189.252 122.389C189.039 122.566 188.774 122.668 188.497 122.68Z" fill="#1DBC79"/>
<path d="M187.825 84.3763C191.674 84.3763 194.793 81.2564 194.793 77.4079C194.793 73.5593 191.674 70.4395 187.825 70.4395C183.976 70.4395 180.857 73.5593 180.857 77.4079C180.857 81.2564 183.976 84.3763 187.825 84.3763Z" fill="#FFB8B8"/>
<path d="M184.257 109.8C184.084 109.8 183.912 109.768 183.75 109.706L172.736 105.47C172.437 105.356 172.186 105.145 172.024 104.87C171.861 104.596 171.796 104.274 171.839 103.958L172.281 100.641C172.019 99.4644 172.043 98.2426 172.351 97.0778C172.66 95.913 173.244 94.8394 174.054 93.9475L174.322 93.6524L177.581 87.7103C177.802 87.3077 178.1 86.9528 178.459 86.6661C178.817 86.3793 179.229 86.1664 179.67 86.0396C180.111 85.9128 180.574 85.8746 181.03 85.9272C181.486 85.9799 181.927 86.1223 182.328 86.3463L188.082 89.562C188.84 89.9845 189.411 90.6753 189.685 91.4984C190.46 93.8283 190.402 96.3547 189.523 98.647L185.583 108.891C185.479 109.158 185.297 109.388 185.06 109.55C184.824 109.712 184.544 109.799 184.257 109.8Z" fill="#1DBC79"/>
<path d="M155.392 166.812L155.377 166.809C155.19 166.773 155.011 166.699 154.852 166.592C154.694 166.485 154.558 166.347 154.455 166.186C154.351 166.026 154.28 165.846 154.248 165.657C154.215 165.469 154.221 165.276 154.265 165.09L162.705 128.195C164.087 122.346 165.996 116.635 168.408 111.13L171.999 102.943L185.398 109.06L187.311 112.559C188.803 116.456 189.57 120.593 189.574 124.766L203.189 164.665C203.255 164.86 203.278 165.067 203.257 165.272C203.235 165.476 203.17 165.674 203.064 165.851C202.959 166.027 202.816 166.179 202.646 166.295C202.476 166.411 202.283 166.489 202.079 166.523L194.626 166.438C194.556 166.451 194.485 166.457 194.413 166.456C194.131 166.457 193.855 166.372 193.621 166.213C193.387 166.055 193.206 165.83 193.102 165.567L177.539 125.226C177.517 125.173 177.479 125.127 177.43 125.096C177.381 125.064 177.324 125.049 177.266 125.051C177.21 125.051 177.155 125.07 177.109 125.103C177.063 125.137 177.028 125.183 177.01 125.237L162.243 165.778C162.13 166.094 161.908 166.358 161.618 166.525C161.327 166.692 160.987 166.75 160.658 166.689L155.392 166.812Z" fill="#2F2E41"/>
<path d="M165.582 121.44C165.975 121.3 166.332 121.076 166.629 120.783C166.926 120.49 167.155 120.135 167.3 119.744C167.445 119.353 167.503 118.935 167.469 118.519C167.435 118.104 167.311 117.7 167.104 117.338L173.778 109.706L168.558 108.994L163.02 116.351C162.435 116.738 162.011 117.327 161.831 118.006C161.65 118.684 161.725 119.406 162.041 120.033C162.357 120.66 162.891 121.15 163.544 121.409C164.197 121.668 164.922 121.679 165.582 121.44Z" fill="#FFB8B8"/>
<path d="M168.728 116.066C168.496 116.065 168.267 116.008 168.062 115.899L165.713 114.647C165.541 114.555 165.389 114.428 165.268 114.275C165.147 114.122 165.059 113.945 165.009 113.756C164.959 113.568 164.949 113.37 164.979 113.177C165.009 112.984 165.078 112.8 165.183 112.635L173.857 98.9661L175.362 88.6511C175.439 88.118 175.625 87.6062 175.906 87.1467C176.187 86.6872 176.559 86.2896 176.998 85.978C177.438 85.6663 177.936 85.4471 178.463 85.3336C178.989 85.22 179.534 85.2145 180.062 85.3175C180.591 85.4204 181.094 85.6296 181.539 85.9323C181.985 86.2351 182.365 86.6251 182.655 87.0788C182.946 87.5326 183.141 88.0405 183.229 88.572C183.318 89.1034 183.298 89.6473 183.17 90.1707L180.064 102.884L169.833 115.539C169.7 115.704 169.531 115.837 169.34 115.928C169.149 116.019 168.94 116.066 168.728 116.066Z" fill="#1DBC79"/>
<path d="M181.553 71.6577C182.359 69.0145 187.016 67.8352 190.887 68.9319C194.757 70.0286 197.538 72.904 198.185 75.7153C199.619 81.9407 192.142 86.9932 193.497 93.2194C194.393 97.3386 199.579 101.233 205.419 102.174C198.983 103.521 191.127 102.337 185.159 99.1213C181.444 97.12 178.327 94.0999 178.375 91.0537C178.403 89.2092 179.576 87.5783 181.011 86.1693C182.446 84.7602 184.164 83.5076 185.48 82.0369C186.797 80.5661 187.709 78.805 187.325 76.938C186.941 75.0709 184.989 73.1238 182.362 72.5806L181.553 71.6577Z" fill="#2F2E41"/>
<path d="M220.363 173.999H112.266C112.191 173.999 112.119 173.969 112.066 173.916C112.012 173.863 111.983 173.791 111.983 173.715C111.983 173.64 112.012 173.568 112.066 173.515C112.119 173.462 112.191 173.432 112.266 173.432H220.363C220.438 173.432 220.51 173.462 220.563 173.515C220.617 173.568 220.647 173.64 220.647 173.715C220.647 173.791 220.617 173.863 220.563 173.916C220.51 173.969 220.438 173.999 220.363 173.999Z" fill="#CCCCCC"/>
</g>
<defs>
<clipPath id="clip0_216_1773">
<rect width="220.647" height="174" fill="white"/>
</clipPath>
</defs>
</svg>
