<svg width="27" height="23" viewBox="0 0 27 23" fill="none" xmlns="http://www.w3.org/2000/svg">
<path d="M26.7103 21.4508C26.7103 21.7154 26.6051 21.9692 26.418 22.1563C26.2309 22.3434 25.9771 22.4485 25.7125 22.4485H1.76655C1.50193 22.4485 1.24815 22.3434 1.06103 22.1563C0.873918 21.9692 0.768799 21.7154 0.768799 21.4508V1.4958C0.768799 1.23118 0.873918 0.977395 1.06103 0.790281C1.24815 0.603167 1.50193 0.498047 1.76655 0.498047C2.03117 0.498047 2.28495 0.603167 2.47206 0.790281C2.65918 0.977395 2.7643 1.23118 2.7643 1.4958V13.2655L9.09127 7.73173C9.26344 7.58101 9.48218 7.49406 9.71083 7.48543C9.93948 7.4768 10.1642 7.54702 10.3472 7.68433L17.6819 13.1857L25.0553 6.73398C25.1519 6.63828 25.2672 6.56336 25.3938 6.51382C25.5205 6.46429 25.656 6.44118 25.792 6.44592C25.9279 6.45067 26.0615 6.48316 26.1844 6.54141C26.3073 6.59965 26.417 6.68242 26.5068 6.78463C26.5966 6.88683 26.6645 7.00632 26.7064 7.13574C26.7483 7.26515 26.7633 7.40177 26.7505 7.5372C26.7376 7.67262 26.6972 7.80399 26.6318 7.92324C26.5663 8.04248 26.4772 8.14708 26.3698 8.2306L18.3878 15.2148C18.2156 15.3656 17.9969 15.4525 17.7682 15.4611C17.5396 15.4698 17.3149 15.3995 17.1319 15.2622L9.79718 9.76339L2.7643 15.917V20.453H25.7125C25.9771 20.453 26.2309 20.5581 26.418 20.7453C26.6051 20.9324 26.7103 21.1862 26.7103 21.4508Z" fill="#1DBC79"/>
</svg>
